<svg viewBox="0 0 561 125" fill="none" xmlns="http://www.w3.org/2000/svg">
<mask id="mask0" mask-type="alpha" maskUnits="userSpaceOnUse" x="0" y="13" width="561" height="138">
<path d="M280.5 13C341.912 13 465.256 14.5682 561 19.2727V151H0V19.2727C95.744 14.5682 219.088 13 280.5 13Z" fill="white"/>
</mask>
<g mask="url(#mask0)">
<g filter="url(#filter0_f)">
<path d="M280.499 13C347.641 13 417.069 13 521.746 17.7045L520.11 44.3636H40.8885L39.2529 17.7045C143.929 13 213.358 13 280.499 13Z" fill="url(#paint0_linear)" fill-opacity="0.6"/>
</g>
</g>
<path d="M262.347 65.499C264.206 65.499 265.371 64.5537 265.371 63.0444V63.0391C265.371 61.8682 264.689 61.2129 263.056 60.8691L262.224 60.6919C261.257 60.4878 260.865 60.144 260.865 59.5962V59.5908C260.865 58.9302 261.477 58.5273 262.337 58.5273C263.223 58.522 263.797 58.9517 263.894 59.5532L263.905 59.6177H265.232L265.226 59.5479C265.13 58.3018 264.061 57.3618 262.342 57.3618C260.666 57.3618 259.474 58.2964 259.474 59.6821V59.6875C259.474 60.8423 260.161 61.5835 261.746 61.9165L262.578 62.0884C263.577 62.3032 263.98 62.6416 263.98 63.2002V63.2056C263.98 63.8716 263.325 64.3335 262.39 64.3335C261.407 64.3335 260.714 63.9038 260.65 63.2539L260.645 63.2002H259.302L259.307 63.2754C259.404 64.6128 260.548 65.499 262.347 65.499ZM270.17 65.499C271.959 65.499 273.242 64.4624 273.446 62.9102V62.8726H272.087L272.082 62.8994C271.883 63.7534 271.153 64.3013 270.17 64.3013C268.849 64.3013 268.027 63.2002 268.027 61.4331V61.4224C268.027 59.6606 268.849 58.5596 270.165 58.5596C271.142 58.5596 271.883 59.1665 272.082 60.085L272.087 60.1064H273.446V60.0635C273.264 58.479 271.926 57.3618 270.165 57.3618C267.968 57.3618 266.609 58.9141 266.609 61.4277V61.4385C266.609 63.9414 267.973 65.499 270.17 65.499ZM275.001 65.3057H276.387V62.3892H277.923L279.443 65.3057H281.027L279.335 62.1797C280.254 61.8467 280.796 60.998 280.796 59.9722V59.9614C280.796 58.4844 279.797 57.5552 278.132 57.5552H275.001V65.3057ZM276.387 61.3257V58.6777H277.96C278.841 58.6777 279.373 59.1826 279.373 59.9937V60.0044C279.373 60.8369 278.863 61.3257 277.987 61.3257H276.387ZM282.485 65.3057H287.502V64.1401H283.871V61.9219H287.303V60.8208H283.871V58.7207H287.502V57.5552H282.485V65.3057ZM289.228 65.3057H294.245V64.1401H290.614V61.9219H294.046V60.8208H290.614V58.7207H294.245V57.5552H289.228V65.3057ZM295.971 65.3057H297.309V59.9668H297.395L301.203 65.3057H302.4V57.5552H301.068V62.894H300.982L297.174 57.5552H295.971V65.3057Z" fill="#D0D4D6"/>
<path d="M280.814 37.7819C281.214 37.3019 281.951 37.3019 282.351 37.7819L291.244 48.459C291.787 49.1103 291.323 50.099 290.476 50.099H272.69C271.842 50.099 271.379 49.1103 271.921 48.459L280.814 37.7819Z" fill="#A2A9AD"/>
<path d="M13 12.5004C206.555 4.13079 326.134 4.00987 549.5 12.5003L532 22.0003C532 22.0003 349.5 22.0003 281.75 22.0003C214 22.0003 31 22.0003 31 22.0003L13 12.5004Z" fill="#45535C"/>
<path d="M12 8.51634C12 7.45301 12.7662 6.5794 13.8282 6.52535C29.7009 5.71757 146.792 0 281.069 0C415.347 0 532.437 5.71757 548.31 6.52535C549.372 6.5794 550.138 7.45301 550.138 8.51634V11.1305C550.138 12.2767 549.257 13.1932 548.112 13.1351C531.49 12.2912 414.803 6.61979 281.069 6.61979C147.335 6.61979 30.6487 12.2912 14.0258 13.1351C12.881 13.1932 12 12.2768 12 11.1305V8.51634Z" fill="#A2A9AD"/>
<defs>
<filter id="filter0_f" x="-40.7471" y="-67" width="642.493" height="191.364" filterUnits="userSpaceOnUse" color-interpolation-filters="sRGB">
<feFlood flood-opacity="0" result="BackgroundImageFix"/>
<feBlend mode="normal" in="SourceGraphic" in2="BackgroundImageFix" result="shape"/>
<feGaussianBlur stdDeviation="40" result="effect1_foregroundBlur"/>
</filter>
<linearGradient id="paint0_linear" x1="280.499" y1="9.86363" x2="280.499" y2="96.5057" gradientUnits="userSpaceOnUse">
<stop stop-color="white"/>
<stop offset="1" stop-color="#1B2C38" stop-opacity="0.1"/>
</linearGradient>
</defs>
</svg>
