<svg  viewBox="0 0 65 64" fill="none" xmlns="http://www.w3.org/2000/svg">
<path fill-rule="evenodd" clip-rule="evenodd" d="M63.9988 18V55H15.9943C11.0274 55 6.99868 50.9792 6.99878 46.0073L6.99948 14C6.99948 11.2386 9.23696 9 11.997 9C14.757 9 16.9945 11.2386 16.9945 14V17H64.0038L63.9988 18ZM8.99847 14C8.99847 12.3431 10.3409 11 11.997 11C13.653 11 14.9955 12.3431 14.9955 14V18C14.9955 18.5523 15.4429 19 15.995 19H62.9988V53H15.9943C12.1289 53 8.99767 49.8722 8.99777 46.0074L8.99847 14Z" fill="#D0D4D6"/>
<path d="M63.0059 18.4405L62.005 19.0549L10.0383 49.8744C10.4664 50.8119 11.1937 51.3853 11.5038 51.5549L63.0059 21.0206V18.4405Z" fill="#D0D4D6"/>
</svg>
