<svg viewBox="0 0 65 64" fill="none" xmlns="http://www.w3.org/2000/svg">
<path fill-rule="evenodd" clip-rule="evenodd" d="M63.9989 18V55H15.9944C11.0275 55 6.99879 50.9792 6.99889 46.0073L6.99959 14C6.99959 11.2386 9.23706 9 11.9971 9C14.7571 9 16.9946 11.2386 16.9946 14V17H64.0039L63.9989 18ZM8.99858 14C8.99858 12.3431 10.341 11 11.9971 11C13.6531 11 14.9956 12.3431 14.9956 14V18C14.9956 18.5523 15.443 19 15.9951 19H62.9989V53H15.9944C12.129 53 8.99778 49.8722 8.99788 46.0074L8.99858 14Z" fill="#D0D4D6"/>
</svg>
