<svg width="27" height="20" viewBox="0 0 27 20" fill="none"
  xmlns="http://www.w3.org/2000/svg">
  <path d="M19.2331 7.816L17.1676 7.72674C16.9919 6.56633 16.6842 6.12001 16.3766 5.6737L16.3766 5.67368C16.1305 5.31662 14.692 5.16785 14.0035 5.1381C12.773 5.1381 11.103 5.25414 10.3999 6.968C9.52092 9.11033 9.91644 11.1188 10.0483 12.2346C10.3559 13.3057 10.9272 15.0017 13.4322 15.0017C15.4361 15.0017 15.9371 14.3769 15.9371 14.0645C15.9518 13.7818 15.9723 13.0469 15.9371 12.3684C15.902 11.69 15.3072 11.58 15.0142 11.6097H13.5201V10.2708H21.1228V11.6097C19.6286 11.4758 19.5847 12.2346 19.5847 12.6809L19.5407 15.7158C14.0035 16.9655 11.0151 16.296 9.91644 16.0283C8.81777 15.7605 7.2357 14.7786 6.70834 13.7967C6.18098 12.8148 5.74151 11.5651 5.9173 9.46738C6.09308 7.36969 6.79623 6.07537 7.71911 5.36126C8.64199 4.64715 9.87249 3.88841 12.9927 3.75451C15.4889 3.64739 18.1638 4.09669 19.1892 4.33472L19.2331 7.816Z" fill="#ADB5BD"/>
  <path d="M1 5.26709C1 3.17922 2.6015 1.44965 4.66245 1.31656C11.2634 0.890323 16.0196 0.89989 22.3429 1.31283C24.4017 1.44728 26 3.17595 26 5.26312V14.5872C26 16.6174 24.4879 18.3033 22.4966 18.4863C19.7434 18.7393 16.2362 19 13.5 19C10.7638 19 7.25662 18.7393 4.50343 18.4863C2.51206 18.3033 1 16.6174 1 14.5872V5.26709Z" stroke="#ADB5BD" stroke-width="2" stroke-linecap="round" stroke-linejoin="round"/>
</svg>
