<svg width="60" height="16" viewBox="0 0 60 16" fill="none"
  xmlns="http://www.w3.org/2000/svg">
  <path d="M0.863942 14.8985C0.678499 14.8985 0.647592 14.7272 0.655319 14.6416C0.794399 13.9644 0.863942 13.941 1.00303 13.8476C1.11429 13.7729 1.37391 13.7075 1.48981 13.6842C2.21304 13.3666 2.27794 12.7501 2.27794 12.2831V2.84892C1.62889 2.05496 0.493057 1.51787 0.191712 1.37776C-0.109631 1.23765 0.00626827 0.93408 0.122169 0.630506L0.122171 0.630501C0.214893 0.38764 0.408062 0.295793 0.493057 0.280228H5.40729C6.00071 0.16814 6.55085 0.669424 6.75175 0.934077L13.2654 9.57425C13.2577 7.96298 13.2469 4.48822 13.2654 3.47943C13.2886 2.21843 13.2191 2.14837 13.1032 1.91485C12.9823 1.67128 12.2919 1.40111 11.9673 1.37776C11.7084 1.35913 11.6737 1.15981 11.6892 1.05084C11.7046 1.00413 11.7587 0.793964 11.8282 0.5838C11.926 0.288237 12.1373 0.272443 12.2455 0.280228C13.5359 0.272444 16.1769 0.261546 16.418 0.280228C16.659 0.298909 16.6034 0.537094 16.5802 0.677209C16.5493 0.73948 16.4968 0.915393 16.4411 1.12089C16.3855 1.32639 16.0857 1.4089 15.9543 1.42447C15.2821 1.58793 15.0194 2.28848 15.004 2.63876C15.0117 6.37505 14.9993 13.9457 14.9808 14.338C14.9622 14.7303 14.6485 14.8751 14.494 14.8985H11.921L4.01647 4.27339C4.00874 6.68641 3.99793 11.6666 4.01647 12.2831C4.03965 13.0537 4.0767 13.1377 4.341 13.4039C4.48008 13.5441 5.11163 13.7399 5.38411 13.8009C5.59273 13.8476 5.61591 14.1045 5.59273 14.2213C5.56955 14.2913 5.50465 14.4781 5.43047 14.665C5.35629 14.8518 5.13685 14.8985 5.03641 14.8985H0.863942Z" fill="#ADB5BD"/>
  <path d="M30.4652 2.98903V1.47116C30.4884 1.16759 30.0891 0.981824 29.7003 0.840667C27.1273 -0.0934063 26.1324 0.0280358 24.2761 0.0700571C22.0508 0.120433 18.3839 2.07831 17.4611 5.62779C16.6961 8.57012 17.8088 10.7418 18.5737 11.9328C19.3908 13.2049 21.2163 14.6105 23.9516 15.0386C26.3391 15.4122 28.5181 14.8518 28.9353 14.6416C29.2501 14.4831 29.4917 14.2213 29.5612 14.0812C29.8085 13.4507 30.3215 12.1336 30.3957 11.9094C30.4884 11.6292 30.2103 11.4891 30.0712 11.4424C29.9321 11.3957 29.8857 11.3957 29.5612 11.7693C29.2367 12.143 28.9817 12.3998 27.9386 12.8902C26.8955 13.3806 25.5974 13.3339 24.6702 13.007C23.7429 12.68 23.3721 12.3064 22.6998 11.4424C22.0276 10.5784 21.7726 8.3833 21.7958 7.0756C21.819 5.7679 21.9812 4.32009 22.6071 3.2459C23.233 2.17172 24.137 1.61128 25.3656 1.54122C26.5941 1.47117 27.4286 2.12502 27.7995 2.35854C28.1704 2.59205 29.0744 3.57283 29.2135 3.73629C29.3248 3.86706 29.4453 3.88419 29.4917 3.8764C29.708 3.74408 30.1778 3.45607 30.3262 3.36266C30.4745 3.26926 30.4807 3.07466 30.4652 2.98903Z" fill="#ADB5BD"/>
  <path d="M30.952 8.50006V6.58521H36.0981V8.50006H30.952Z" fill="#ADB5BD"/>
  <path d="M37.2571 2.07831C37.2385 1.8915 37.4039 1.81366 37.4889 1.79809L44.3503 0V11.6292C44.3503 12.7267 44.443 12.7501 44.8139 13.2171C45.1848 13.6842 46.4133 13.6608 46.8538 13.7309C47.2061 13.7869 47.1551 14.0189 47.0856 14.1279C47.0315 14.2135 46.8955 14.4361 46.7842 14.6416C46.6729 14.8471 46.3824 14.8985 46.2511 14.8985H37.9061C37.5909 14.8985 37.5739 14.6805 37.6048 14.5715C37.6357 14.4781 37.7207 14.2399 37.8134 14.0344C37.9061 13.8289 38.0684 13.762 38.1379 13.7542C38.5011 13.692 39.2506 13.5627 39.3433 13.5441C39.4592 13.5207 39.8301 13.3339 40.1083 13.0303C40.3308 12.7875 40.4019 12.431 40.4096 12.2831V4.41349C40.4173 4.04765 40.4189 3.26458 40.3633 3.05909C40.2937 2.80222 39.9692 2.54535 39.2738 2.66211C38.5784 2.77887 38.1379 2.98903 37.8366 3.10579C37.5955 3.1992 37.458 3.03574 37.4194 2.94233C37.373 2.73216 37.2756 2.26513 37.2571 2.07831Z" fill="#ADB5BD"/>
  <path d="M50.0063 4.74042C49.8579 4.62833 49.8208 4.4602 49.8208 4.39014C49.8208 3.37045 49.7977 1.21429 49.7977 0.793962C49.7977 0.303018 50.0295 0.25687 50.1917 0.25687H59.1393V1.79809L52.8806 14.8985H49.2877L52.672 9.31738L55.9405 3.45607C54.8742 3.4405 52.5932 3.41871 51.9998 3.45607C51.258 3.50277 50.5626 4.62366 50.4467 4.81048C50.3308 4.99729 50.1917 4.88053 50.0063 4.74042Z" fill="#ADB5BD"/>
</svg>
