<svg width="70" height="21" viewBox="0 0 70 21" fill="none"
  xmlns="http://www.w3.org/2000/svg">
  <path d="M33.7194 8.01355L31.611 7.92752C31.4316 6.80913 31.1176 6.37897 30.8036 5.94882L30.8036 5.94881C30.5524 5.60468 29.084 5.4613 28.3812 5.43262C27.1251 5.43262 25.4205 5.54446 24.7027 7.19626C23.8055 9.261 24.2093 11.1967 24.3439 12.2721C24.6579 13.3045 25.241 14.9391 27.798 14.9391C29.8436 14.9391 30.355 14.3368 30.355 14.0357C30.3699 13.7633 30.3909 13.055 30.355 12.4011C30.3191 11.7473 29.712 11.6412 29.4129 11.6699H27.8877V10.3794H35.6483V11.6699C34.1231 11.5408 34.0783 12.2721 34.0783 12.7022L34.0334 15.6273C28.3812 16.8317 25.3308 16.1865 24.2093 15.9284C23.0878 15.6703 21.4729 14.724 20.9346 13.7776C20.3963 12.8313 19.9477 11.6269 20.1271 9.60513C20.3065 7.5834 21.0243 6.33595 21.9663 5.6477C22.9084 4.95945 24.1644 4.22818 27.3494 4.09914C29.8974 3.9959 32.6278 4.42892 33.6746 4.65834L33.7194 8.01355Z" fill="#ADB5BD"/>
  <path d="M43.4297 8.73906V7.09336C45.5135 6.61461 46.8628 5.61721 47.292 5.14844H50.0764C50.0864 7.612 50.1004 12.7187 50.0764 13.4368C50.0465 14.3344 50.4357 14.3045 50.795 14.3943C51.0824 14.4661 51.9327 14.4641 52.3219 14.4541V15.7707L43.8489 15.8006V14.514C44.5475 14.4841 46.0345 14.3763 46.3938 14.1848C46.7531 13.9933 46.783 13.5266 46.7531 13.3171V7.30281L43.4297 8.73906Z" fill="#ADB5BD"/>
  <path fill-rule="evenodd" clip-rule="evenodd" d="M7.30469 4.46492V5.69712C7.62103 5.68734 8.29658 5.68539 8.46801 5.7558C8.50234 5.76989 8.54058 5.78173 8.5805 5.79409C8.78978 5.85886 9.04477 5.93779 9.01906 6.43058C8.99457 6.89999 9.00886 11.5159 9.01906 13.7651C9.02927 13.9803 8.96396 14.4223 8.62108 14.4693C8.27821 14.5162 7.66185 14.5279 7.39653 14.5279V15.8481H14.5908V14.5573L13.3356 14.4986C13.1315 14.4986 12.7172 14.3754 12.6927 13.8825C12.6682 13.3896 12.7029 11.9364 12.7233 11.2714C13.2336 11.2812 14.4071 11.289 15.0194 11.242C15.0789 11.2375 15.1412 11.2331 15.2061 11.2285C15.9754 11.1744 17.1069 11.0947 18.2644 10.3912C19.2686 9.781 19.5196 8.45491 19.5196 7.86815C19.54 7.50631 19.5196 6.63008 19.2747 6.01984C18.9686 5.25705 18.142 4.84631 17.7134 4.72896C17.2848 4.61161 15.999 4.40624 14.1928 4.46492C12.7478 4.51186 8.99865 4.48447 7.30469 4.46492ZM12.7233 6.01985V10.2446C13.1825 10.2641 14.1771 10.1691 14.6519 9.83382C15.2336 9.42308 15.5704 8.77764 15.601 7.98551C15.6316 7.19338 15.3561 6.43058 14.7438 6.22521C14.1315 6.01985 13.3049 5.96117 12.7233 6.01985Z" fill="#ADB5BD"/>
  <rect x="37.3164" y="10.4746" width="5.55766" height="2.13043" fill="#ADB5BD"/>
  <path d="M53.093 7.9215C53.093 7.55595 53.2025 7.09901 53.2722 6.9467C53.6543 5.99626 54.5759 5.55557 54.9739 5.45402C57.5116 4.84477 59.3328 5.24078 60.6166 5.81958C61.9004 6.39837 62.2228 7.61688 61.99 8.80492C61.8228 9.65788 60.9251 10.2164 60.4972 10.389C60.945 10.4804 61.8705 10.8764 62.1989 11.9426C62.5273 13.0088 62.1691 14.4101 61.6914 14.8975C61.4372 15.1568 61.0346 16.2378 57.3922 16.3292C53.7499 16.4206 53.093 14.9279 52.9438 14.1054C52.7945 13.2829 52.9139 12.9783 53.1528 12.7346C53.3916 12.4909 54.3171 12.5214 54.7052 12.5518C55.0934 12.5823 56.0189 12.3995 55.989 13.4657C55.9557 14.6548 56.5264 15.0498 57.3624 15.0193C58.1983 14.9888 58.6461 14.3491 58.6461 12.9783C58.6461 11.6075 57.883 11.2507 57.3922 11.1505C57.0937 11.0896 55.8795 11.1404 55.3621 11.2115V9.74926C55.78 9.76957 56.6757 9.76754 57.2728 9.7188C57.9893 9.66031 58.258 9.01816 58.3775 8.1652C58.4969 7.31225 58.3177 6.61161 57.2728 6.61161C56.2279 6.61161 56.1681 7.22086 56.1084 7.9215C56.0539 8.56122 55.5113 8.74399 55.2426 8.80492C54.9242 8.82523 54.1858 8.85366 53.7797 8.80492C53.2722 8.74399 53.093 8.37844 53.093 7.9215Z" fill="#ADB5BD"/>
  <path d="M1 5.52883C1 3.37154 2.71465 1.60253 4.86998 1.53634C28.5117 0.810228 42.5683 0.832852 65.1342 1.53466C67.2883 1.60165 69 3.36965 69 5.52713V15.2124C69 17.3492 67.3321 19.0995 65.2075 19.19C58.169 19.4901 44.7683 20 35 20C25.2317 20 11.831 19.4901 4.7925 19.19C2.66793 19.0995 1 17.3492 1 15.2124V5.52883Z" stroke="#ADB5BD" stroke-width="2" stroke-linecap="round" stroke-linejoin="round"/>
</svg>
