<svg width="41" height="21" viewBox="0 0 41 21" fill="none"
  xmlns="http://www.w3.org/2000/svg">
  <path d="M33.4011 8.01355L31.3126 7.92752C31.1349 6.80913 30.8239 6.37897 30.5128 5.94882L30.5128 5.94881C30.264 5.60468 28.8095 5.4613 28.1133 5.43262C26.8691 5.43262 25.1806 5.54446 24.4696 7.19626C23.5809 9.261 23.9809 11.1967 24.1142 12.2721C24.4252 13.3045 25.0029 14.9391 27.5357 14.9391C29.5619 14.9391 30.0684 14.3368 30.0684 14.0357C30.0833 13.7633 30.104 13.055 30.0684 12.4011C30.0329 11.7473 29.4315 11.6412 29.1353 11.6699H27.6245V10.3794H35.3118V11.6699C33.801 11.5408 33.7566 12.2721 33.7566 12.7022L33.7121 15.6273C28.1133 16.8317 25.0917 16.1865 23.9809 15.9284C22.87 15.6703 21.2703 14.724 20.7371 13.7776C20.2039 12.8313 19.7595 11.6269 19.9373 9.60513C20.115 7.5834 20.826 6.33595 21.7591 5.6477C22.6922 4.95945 23.9364 4.22818 27.0913 4.09914C29.6152 3.9959 32.3198 4.42892 33.3566 4.65834L33.4011 8.01355Z" fill="#ADB5BD"/>
  <path fill-rule="evenodd" clip-rule="evenodd" d="M7.23535 4.46492V5.69712C7.5487 5.68734 8.21786 5.68539 8.38768 5.7558C8.42168 5.76989 8.45956 5.78173 8.4991 5.79409C8.7064 5.85886 8.95899 5.93779 8.93352 6.43058C8.90926 6.89999 8.92341 11.5159 8.93352 13.7651C8.94363 13.9803 8.87893 14.4223 8.5393 14.4693C8.19967 14.5162 7.58914 14.5279 7.32632 14.5279V15.8481H14.4526V14.5573L13.2093 14.4986C13.0071 14.4986 12.5967 14.3754 12.5724 13.8825C12.5482 13.3896 12.5826 11.9364 12.6028 11.2714C13.1082 11.2812 14.2706 11.289 14.8771 11.242C14.9361 11.2375 14.9978 11.2331 15.062 11.2285C15.8241 11.1744 16.9449 11.0947 18.0915 10.3912C19.0861 9.781 19.3348 8.45491 19.3348 7.86815C19.355 7.50631 19.3348 6.63008 19.0922 6.01984C18.7889 5.25705 17.9702 4.84631 17.5456 4.72896C17.1211 4.61161 15.8475 4.40624 14.0583 4.46492C12.627 4.51186 8.9133 4.48447 7.23535 4.46492ZM12.6028 6.01985V10.2446C13.0577 10.2641 14.0429 10.1691 14.5133 9.83382C15.0894 9.42308 15.423 8.77764 15.4533 7.98551C15.4837 7.19338 15.2107 6.43058 14.6043 6.22521C13.9978 6.01985 13.179 5.96117 12.6028 6.01985Z" fill="#ADB5BD"/>
  <path d="M1 5.4172C1 3.29415 2.65903 1.54352 4.77112 1.43959C16.836 0.845872 24.701 0.862092 36.2303 1.43664C38.3416 1.54185 40 3.29246 40 5.41438V15.3725C40 17.4567 38.4076 19.1776 36.3448 19.319C32.0005 19.6168 25.4448 20 20.5 20C15.5552 20 8.99952 19.6168 4.65523 19.319C2.59241 19.1776 1 17.4567 1 15.3725V5.4172Z" stroke="#ADB5BD" stroke-width="2" stroke-linecap="round" stroke-linejoin="round"/>
</svg>
