<svg width="30" height="21" viewBox="0 0 30 21" fill="none"
  xmlns="http://www.w3.org/2000/svg">
  <path d="M1 5.32067C1 3.22715 2.61206 1.49332 4.68344 1.36288C12.4491 0.873829 17.8873 0.885516 25.3198 1.35914C27.3897 1.49103 29 3.22453 29 5.3169V15.5094C29 17.5489 27.4742 19.2415 25.4692 19.4197C22.3507 19.697 18.2038 20 15 20C11.7962 20 7.6493 19.697 4.53081 19.4197C2.52583 19.2415 1 17.5489 1 15.5094V5.32067Z" stroke="#ADB5BD" stroke-width="2" stroke-linecap="round" stroke-linejoin="round"/>
  <path fill-rule="evenodd" clip-rule="evenodd" d="M7.64746 4.12752L7.6754 5.59586C8.05255 5.58663 8.87391 5.59032 9.14211 5.67897C9.47735 5.78979 9.51926 5.94217 9.53323 6.30233C9.5444 6.59045 9.53788 11.8894 9.53323 14.5029C9.57979 14.7522 9.55278 15.273 9.07226 15.3617C8.47161 15.4725 8.22018 15.4725 7.66143 15.4448V16.927C10.1711 16.8808 15.2715 16.8162 15.5956 16.927L15.5677 15.4864C15.1533 15.5002 14.2574 15.4919 13.9892 15.3478C13.948 15.3257 13.9093 15.3071 13.8732 15.2898C13.6161 15.1663 13.4932 15.1073 13.5422 14.2812C13.5869 13.5277 13.5609 12.1018 13.5422 11.4831C14.7389 12.7529 17.2635 15.6193 17.7887 16.927H23.5019L23.5298 15.5141C23.0549 15.4956 22.024 15.3949 21.6999 15.1401C21.3758 14.8852 20.7826 14.2304 20.5266 13.9349L17.5373 10.458C18.2124 10.4118 19.7611 10.048 20.5545 8.96196C21.5463 7.60444 20.8059 5.72053 20.6802 5.58201C20.6663 5.56665 20.6484 5.5414 20.6249 5.50829C20.4368 5.24289 19.8906 4.47234 18.1519 4.23834C17.8691 4.19287 17.3244 4.15996 16.6165 4.13682C14.146 4.04867 9.89171 4.08752 7.64746 4.12752ZM13.5423 5.73442V9.6546C14.0824 9.67769 15.2887 9.54562 15.9868 9.11436C16.8389 8.58798 17.1462 7.29972 16.5176 6.38547C15.889 5.47122 13.9753 5.6236 13.5423 5.73442Z" fill="#ADB5BD"/>
</svg>
