<svg viewBox="0 0 64 64" fill="none" xmlns="http://www.w3.org/2000/svg">
<path fill-rule="evenodd" clip-rule="evenodd" d="M4.0007 14C4.0007 11.2386 6.23818 9 8.99819 9C11.7582 9 13.9957 11.2386 13.9957 14V17H50.005V14C50.005 11.2386 52.2425 9 55.0025 9C57.7625 9 60 11.2386 60 14V46.0076C60 50.9794 55.9713 55 51.0045 55H12.9955C8.02858 55 3.9999 50.9792 4 46.0073L4.0007 14ZM8.99819 11C7.34212 11 5.9997 12.3431 5.9997 14L5.999 46.0074C5.9989 49.8722 9.13012 53 12.9955 53H51.0045C54.8698 53 58.001 49.8723 58.001 46.0076V14C58.001 12.3431 56.6586 11 55.0025 11C53.3464 11 52.004 12.3431 52.004 14V18C52.004 18.5523 51.5565 19 51.0045 19H12.9962C12.4442 19 11.9967 18.5523 11.9967 18V14C11.9967 12.3431 10.6543 11 8.99819 11Z" fill="#D0D4D6"/>
<path d="M57.9999 18.3856L7.03438 49.6719C7.46251 50.6094 8.18979 51.1828 8.49992 51.3523L57.9999 20.9657V18.3856Z" fill="#D0D4D6"/>
</svg>
