<svg viewBox="0 0 64 64" fill="none" xmlns="http://www.w3.org/2000/svg">
<path d="M8 14C8 11.7909 9.79086 10 12 10H52C54.2091 10 56 11.7909 56 14V50C56 52.2091 54.2091 54 52 54H12C9.79086 54 8 52.2091 8 50V14Z" fill="#EACC80"/>
<path fill-rule="evenodd" clip-rule="evenodd" d="M25 25.874C26.7252 25.4299 28 23.8638 28 22C28 19.7909 26.2091 18 24 18C21.7909 18 20 19.7909 20 22C20 23.8638 21.2748 25.4299 23 25.874V38H34.5L38.5 44L44 42L43.5 40.5L39.5 42L35.5 36H25V32H32V30H25V25.874ZM21 32.29C18.1085 33.1506 16 35.8291 16 39.0002C16 42.8662 19.134 46.0002 23 46.0002C26.5265 46.0002 29.4439 43.3924 29.9291 40.0001H27.9C27.4367 42.2824 25.419 44.0002 23 44.0002C20.2386 44.0002 18 41.7616 18 39.0002C18 36.9498 19.2341 35.1878 21 34.4162V32.29ZM41 30V25H36V23H41V18H43V23H48V25H43V30H41Z" fill="#283845"/>
</svg>
