<svg width="27" height="24" viewBox="0 0 27 24" fill="none" xmlns="http://www.w3.org/2000/svg">
<path d="M1.4287 0.75H25.1338C25.483 0.75 25.818 0.881696 26.065 1.11612C26.312 1.35054 26.4507 1.66848 26.4507 2V22C26.4507 22.3315 26.312 22.6495 26.065 22.8839C25.818 23.1183 25.483 23.25 25.1338 23.25H1.4287C1.07943 23.25 0.744456 23.1183 0.49748 22.8839C0.250505 22.6495 0.111755 22.3315 0.111755 22V2C0.111755 1.66848 0.250505 1.35054 0.49748 1.11612C0.744456 0.881696 1.07943 0.75 1.4287 0.75ZM23.8168 10.75H2.74565V20.75H23.8168V10.75ZM23.8168 8.25V3.25H2.74565V8.25H23.8168ZM15.9151 15.75H21.1829V18.25H15.9151V15.75Z" fill="#212529"/>
</svg>
