<svg width="16" height="16" viewBox="0 0 16 16" fill="none" xmlns="http://www.w3.org/2000/svg">
<path fill-rule="evenodd" clip-rule="evenodd" d="M2.66671 1.33337C1.93033 1.33337 1.33337 1.93033 1.33337 2.66671V13.3334C1.33337 14.0698 1.93033 14.6667 2.66671 14.6667H13.3334C14.0698 14.6667 14.6667 14.0698 14.6667 13.3334V2.66671C14.6667 1.93033 14.0698 1.33337 13.3334 1.33337H2.66671ZM11.1112 4.22226C11.4793 4.22226 11.7778 4.52074 11.7778 4.88893L10.4445 5.74795V4.88893C10.4445 4.52074 10.743 4.22226 11.1112 4.22226ZM10.4445 5.74938L11.7778 4.88893V7.61115C11.7778 8.20052 11.5437 8.76575 11.127 9.1825C10.7102 9.59924 10.145 9.83337 9.5556 9.83337H6.49841L7.30478 10.6397C7.56513 10.9001 7.56513 11.3222 7.30478 11.5826C7.04444 11.8429 6.62232 11.8429 6.36198 11.5826L4.41797 9.63855L7.07384 7.9246L6.49841 8.50004H9.5556C9.79135 8.50004 10.0174 8.40639 10.1841 8.23969C10.3508 8.07299 10.4445 7.8469 10.4445 7.61115V5.74938ZM7.08802 7.91043L10.4445 5.74795V5.74938L7.07384 7.9246L7.08802 7.91043ZM7.08802 7.91043L4.4132 9.63374C4.2951 9.51346 4.22227 9.34859 4.22227 9.1667C4.22227 9.07631 4.24026 8.99012 4.27286 8.91151C4.30539 8.83288 4.35361 8.75922 4.41753 8.6953L6.36198 6.75085C6.62232 6.49051 7.04444 6.49051 7.30478 6.75085C7.56513 7.0112 7.56513 7.43331 7.30478 7.69366L7.08802 7.91043Z" fill="#A2A9AD"/>
</svg>
