<svg width="22" height="20" viewBox="0 0 22 20" stroke="white" fill="none"
  xmlns="http://www.w3.org/2000/svg">
  <path d="M19.7997 10.4684L19.6493 10.6437L11.0002 19.2928L2.35109 10.6437L2.20073 10.4684C1.2154 9.31965 0.70058 7.841 0.759424 6.32873C0.818268 4.81645 1.44643 3.38228 2.51804 2.31359C3.58964 1.24491 5.02552 0.620658 6.53795 0.565939C8.05038 0.511219 9.52762 1.03007 10.6736 2.01852L11.0002 2.30019L11.3268 2.01852C12.4728 1.03007 13.95 0.511219 15.4625 0.565939C16.9749 0.620658 18.4108 1.24491 19.4824 2.31359C20.554 3.38228 21.1822 4.81645 21.241 6.32873C21.2998 7.841 20.785 9.31965 19.7997 10.4684Z" stroke="current" fill="current"/>
</svg>
