<svg width="188" height="43" viewBox="0 0 188 43" fill="none"
  xmlns="http://www.w3.org/2000/svg">
  <g clip-path="url(#clip0)">
    <path d="M187.889 35.8192L188 5.64372C188 2.77764 186.772 0.821289 182.245 0.821289H175.177L175.065 38.3144L182.214 40.964C186.347 42.0504 187.889 38.6765 187.889 35.8192ZM184.287 36.676C184.287 37.8595 183.841 38.7736 182.764 38.7736C182.562 38.7707 182.361 38.744 182.165 38.6941L178.854 37.3693V2.69373H182.201C183.85 2.69373 184.323 3.33407 184.323 4.52643L184.287 36.676Z" fill="url(#paint0_linear)"/>
    <path d="M12.8232 37.3251V0.821289H9.14153V19.241L3.67716 20.2435V0.821289H0V41.1848L3.67716 39.9439V22.4471L9.14153 21.4403V38.2878L12.8232 37.3251Z" fill="url(#paint1_linear)"/>
    <path d="M51.1053 29.9678L45.5873 30.6656V0.821289H41.9102V33.2049L50.2072 32.1627L51.1053 29.9678Z" fill="url(#paint2_linear)"/>
    <path d="M69.3386 28.855L63.7045 29.2878V0.821289H60.0273V31.7431L68.7176 31.0454L69.3386 28.855Z" fill="url(#paint3_linear)"/>
    <path d="M33.7781 6.34144C33.8007 5.49486 33.6515 4.65238 33.3394 3.86371C33.0272 3.07504 32.5584 2.35616 31.9606 1.74948C31.3628 1.1428 30.6481 0.660621 29.8587 0.331382C29.0692 0.00214325 28.2211 -0.16748 27.3643 -0.16748C26.5075 -0.16748 25.6593 0.00214325 24.8699 0.331382C24.0805 0.660621 23.3658 1.1428 22.768 1.74948C22.1702 2.35616 21.7014 3.07504 21.3892 3.86371C21.077 4.65238 20.9279 5.49486 20.9505 6.34144V28.5326C20.9946 30.1849 21.6897 31.7549 22.8877 32.9082C24.0857 34.0614 25.692 34.7068 27.3643 34.7068C29.0366 34.7068 30.6429 34.0614 31.8409 32.9082C33.0389 31.7549 33.734 30.1849 33.7781 28.5326V6.34144ZM30.1009 30.299C30.1158 30.6634 30.0561 31.0271 29.9253 31.3681C29.7945 31.7091 29.5953 32.0205 29.3397 32.2835C29.0841 32.5465 28.7774 32.7558 28.4379 32.8988C28.0985 33.0417 27.7333 33.1154 27.3643 33.1154C26.9953 33.1154 26.6301 33.0417 26.2907 32.8988C25.9512 32.7558 25.6445 32.5465 25.3889 32.2835C25.1333 32.0205 24.9341 31.7091 24.8033 31.3681C24.6725 31.0271 24.6127 30.6634 24.6276 30.299V4.70746C24.6158 4.02035 24.8617 3.35323 25.3179 2.83464C25.7741 2.31605 26.4084 1.98269 27.0984 1.8988C27.4783 1.86181 27.8617 1.90383 28.2242 2.02215C28.5866 2.14047 28.9199 2.33248 29.2027 2.5858C29.4856 2.83913 29.7116 3.14818 29.8663 3.49305C30.021 3.83792 30.1009 4.21098 30.1009 4.58823V30.299Z" fill="url(#paint4_linear)"/>
    <path d="M146.05 6.34144C146.072 5.49486 145.923 4.65238 145.611 3.86371C145.299 3.07504 144.83 2.35616 144.232 1.74948C143.634 1.1428 142.92 0.660621 142.13 0.331382C141.341 0.00214325 140.493 -0.16748 139.636 -0.16748C138.779 -0.16748 137.931 0.00214325 137.141 0.331382C136.352 0.660621 135.637 1.1428 135.039 1.74948C134.442 2.35616 133.973 3.07504 133.661 3.86371C133.349 4.65238 133.199 5.49486 133.222 6.34144V25.6488C133.199 26.4954 133.349 27.3379 133.661 28.1265C133.973 28.9152 134.442 29.6341 135.039 30.2408C135.637 30.8475 136.352 31.3296 137.141 31.6589C137.931 31.9881 138.779 32.1577 139.636 32.1577C140.493 32.1577 141.341 31.9881 142.13 31.6589C142.92 31.3296 143.634 30.8475 144.232 30.2408C144.83 29.6341 145.299 28.9152 145.611 28.1265C145.923 27.3379 146.072 26.4954 146.05 25.6488V6.34144ZM142.372 27.1547C142.344 27.8532 142.043 28.5137 141.533 28.9979C141.023 29.4821 140.343 29.7525 139.636 29.7525C138.929 29.7525 138.249 29.4821 137.739 28.9979C137.229 28.5137 136.928 27.8532 136.899 27.1547V4.70746C136.887 4.02103 137.132 3.35446 137.588 2.83597C138.043 2.31749 138.676 1.98369 139.365 1.8988C139.746 1.86115 140.13 1.90268 140.493 2.02071C140.856 2.13873 141.189 2.33063 141.473 2.58402C141.756 2.83742 141.982 3.14669 142.137 3.49189C142.292 3.8371 142.372 4.21057 142.372 4.58823V27.1547Z" fill="url(#paint5_linear)"/>
    <path d="M167.01 6.34143C167.032 5.49486 166.883 4.65238 166.571 3.86371C166.259 3.07504 165.79 2.35616 165.192 1.74948C164.594 1.1428 163.879 0.66062 163.09 0.331382C162.301 0.00214319 161.453 -0.16748 160.596 -0.16748C159.739 -0.16748 158.891 0.00214319 158.101 0.331382C157.312 0.66062 156.597 1.1428 155.999 1.74948C155.402 2.35616 154.933 3.07504 154.621 3.86371C154.308 4.65238 154.159 5.49486 154.182 6.34143V28.0821C154.159 28.9287 154.308 29.7712 154.621 30.5598C154.933 31.3485 155.402 32.0674 155.999 32.6741C156.597 33.2807 157.312 33.7629 158.101 34.0922C158.891 34.4214 159.739 34.591 160.596 34.591C161.453 34.591 162.301 34.4214 163.09 34.0922C163.879 33.7629 164.594 33.2807 165.192 32.6741C165.79 32.0674 166.259 31.3485 166.571 30.5598C166.883 29.7712 167.032 28.9287 167.01 28.0821V6.34143ZM163.332 29.588C163.304 30.2865 163.003 30.947 162.493 31.4312C161.983 31.9154 161.303 32.1858 160.596 32.1858C159.888 32.1858 159.209 31.9154 158.699 31.4312C158.188 30.947 157.888 30.2865 157.859 29.588V4.70746C157.847 4.02102 158.092 3.35446 158.548 2.83597C159.003 2.31749 159.636 1.98369 160.325 1.89879C160.706 1.86115 161.09 1.90268 161.453 2.0207C161.815 2.13873 162.149 2.33063 162.433 2.58402C162.716 2.83742 162.942 3.14669 163.097 3.49189C163.252 3.8371 163.332 4.21057 163.332 4.58823V29.588Z" fill="url(#paint6_linear)"/>
    <path d="M126.829 0.759277H124.528L117.978 26.735L114.31 12.1706L117.187 0.759277H114.886L113.157 7.61313L111.432 0.759277H107.25L111.07 15.8978L108.787 24.9509L102.693 0.759277H98.5107L105.977 30.3475L109.708 30.4093L112.219 20.4509L114.77 30.555L119.256 30.7714L126.829 0.759277Z" fill="url(#paint7_linear)"/>
    <path d="M90.5441 0.821289H88.2833L83.163 16.9358L78.1633 0.821289H74.3789L80.5581 21.1841V30.6391L84.2487 30.5243V21.1886L90.5441 0.821289Z" fill="url(#paint8_linear)"/>
    <path d="M76.1708 42.8363C76.1004 42.7748 76.045 42.6983 76.0087 42.6127C75.9723 42.5271 75.956 42.4345 75.9608 42.3417C75.9613 42.1501 76.0346 41.9657 76.1662 41.825C76.2977 41.6843 76.478 41.5977 76.6712 41.5822C76.7598 41.5728 76.8495 41.5821 76.9342 41.6095C77.0189 41.6369 77.0968 41.6818 77.1627 41.7411C77.2302 41.8045 77.2831 41.8814 77.3178 41.9668C77.3525 42.0521 77.3681 42.1439 77.3637 42.2357C77.369 42.4323 77.2951 42.6229 77.1582 42.7657C77.0331 42.9043 76.8586 42.9897 76.6712 43.0041C76.5805 43.0134 76.4888 43.0031 76.4025 42.9742C76.3161 42.9452 76.2371 42.8982 76.1708 42.8363Z" fill="white"/>
    <path d="M82.2867 42.1918C81.7099 41.9162 81.227 41.4803 80.8971 40.9376C80.5547 40.3708 80.3798 39.7207 80.3922 39.0607C80.3845 38.3897 80.556 37.7285 80.8894 37.1439C81.2228 36.5592 81.7063 36.0719 82.2911 35.7309C82.8963 35.3785 83.5817 35.1825 84.2839 35.1613C84.8183 35.1349 85.3527 35.2129 85.8566 35.3909C86.3237 35.5646 86.7419 35.8462 87.0764 36.2123L86.3928 36.8835C86.1267 36.6112 85.8039 36.3993 85.4466 36.2628C85.0894 36.1263 84.7063 36.0684 84.3241 36.0931C83.8012 36.1138 83.2922 36.2658 82.8452 36.5347C82.413 36.7885 82.0568 37.1512 81.813 37.5857C81.564 38.0268 81.4361 38.5247 81.4422 39.0298C81.4303 39.5244 81.5588 40.0124 81.813 40.4385C82.0563 40.8476 82.415 41.1775 82.8452 41.388C83.3035 41.6131 83.8131 41.7166 84.3241 41.6883C84.7156 41.6794 85.1011 41.5914 85.4569 41.4296C85.8127 41.2678 86.1312 41.0357 86.3928 40.7477L87.0764 41.3836C86.7397 41.7642 86.3215 42.0659 85.8521 42.2668C85.3518 42.4804 84.8152 42.5987 84.2705 42.6157C83.5857 42.6526 82.9028 42.5158 82.2867 42.2183" fill="white"/>
    <path d="M91.9777 41.9527C91.3954 41.6474 90.9099 41.1889 90.5748 40.6278C90.241 40.0493 90.0654 39.3949 90.0654 38.7289C90.0654 38.0629 90.241 37.4085 90.5748 36.83C90.9133 36.2716 91.398 35.8139 91.9777 35.5051C92.5961 35.1874 93.2836 35.0238 93.9805 35.0284C94.6774 35.033 95.3626 35.2058 95.9766 35.5316C96.5575 35.8477 97.0396 36.3151 97.3706 36.8829C97.7091 37.4642 97.8834 38.1246 97.8755 38.7951C97.8864 39.4591 97.7117 40.1131 97.3706 40.6852C97.0407 41.2472 96.5577 41.7063 95.9766 42.0101C95.3604 42.3204 94.6751 42.4723 93.9839 42.4517C93.2846 42.4577 92.595 42.2907 91.9777 41.9659V41.9527ZM95.436 41.1798C95.8604 40.946 96.2125 40.6026 96.4547 40.1862C96.7037 39.7531 96.8317 39.2623 96.8255 38.7642C96.8311 38.2634 96.7032 37.7699 96.4547 37.3334C96.212 36.9117 95.8604 36.5612 95.436 36.3177C94.9945 36.0666 94.4931 35.937 93.9839 35.9423C93.4719 35.9309 92.9661 36.0544 92.5183 36.3C92.0869 36.5336 91.7308 36.8825 91.4907 37.3069C91.2446 37.7422 91.1153 38.2325 91.1153 38.7311C91.1153 39.2297 91.2446 39.72 91.4907 40.1553C91.7347 40.5744 92.0901 40.9196 92.5183 41.1533C92.968 41.3877 93.4688 41.5102 93.9772 41.5102C94.4855 41.5102 94.9863 41.3877 95.436 41.1533" fill="white"/>
    <path d="M108.532 42.9163C108.532 41.1499 108.532 39.3834 108.532 37.617C107.639 39.0213 106.754 40.4315 105.878 41.8476L105.396 41.8167C104.502 40.3064 103.617 38.802 102.742 37.3034V42.5586L101.736 42.5145V35.2676L102.599 35.3029C103.617 37.0517 104.638 38.8064 105.659 40.5669C106.666 38.93 107.671 37.2961 108.675 35.665L109.537 35.7313C109.537 38.1513 109.537 40.5714 109.537 42.9914L108.532 42.9163Z" fill="white"/>
  </g>
  <defs>
    <linearGradient id="paint0_linear" x1="153.99" y1="21.0031" x2="263.545" y2="21.0031" gradientUnits="userSpaceOnUse">
      <stop stop-color="#A58549"/>
      <stop offset="0.22" stop-color="#AA8A4D"/>
      <stop offset="0.47" stop-color="#B89858"/>
      <stop offset="0.75" stop-color="#CEB06A"/>
      <stop offset="1" stop-color="#EACC80"/>
    </linearGradient>
    <linearGradient id="paint1_linear" x1="-2814.3" y1="1920.51" x2="352.252" y2="1920.51" gradientUnits="userSpaceOnUse">
      <stop stop-color="#A58549"/>
      <stop offset="0.22" stop-color="#AA8A4D"/>
      <stop offset="0.47" stop-color="#B89858"/>
      <stop offset="0.75" stop-color="#CEB06A"/>
      <stop offset="1" stop-color="#EACC80"/>
    </linearGradient>
    <linearGradient id="paint2_linear" x1="-691.494" y1="1248.56" x2="1437" y2="1248.56" gradientUnits="userSpaceOnUse">
      <stop stop-color="#A58549"/>
      <stop offset="0.22" stop-color="#AA8A4D"/>
      <stop offset="0.47" stop-color="#B89858"/>
      <stop offset="0.75" stop-color="#CEB06A"/>
      <stop offset="1" stop-color="#EACC80"/>
    </linearGradient>
    <linearGradient id="paint3_linear" x1="-205.158" y1="1140.91" x2="2025.08" y2="1140.91" gradientUnits="userSpaceOnUse">
      <stop stop-color="#A58549"/>
      <stop offset="0.22" stop-color="#AA8A4D"/>
      <stop offset="0.47" stop-color="#B89858"/>
      <stop offset="0.75" stop-color="#CEB06A"/>
      <stop offset="1" stop-color="#EACC80"/>
    </linearGradient>
    <linearGradient id="paint4_linear" x1="-2177.45" y1="1376.67" x2="1254.88" y2="1376.67" gradientUnits="userSpaceOnUse">
      <stop stop-color="#A58549"/>
      <stop offset="0.22" stop-color="#AA8A4D"/>
      <stop offset="0.47" stop-color="#B89858"/>
      <stop offset="0.75" stop-color="#CEB06A"/>
      <stop offset="1" stop-color="#EACC80"/>
    </linearGradient>
    <linearGradient id="paint5_linear" x1="2613.41" y1="1170.65" x2="6201.66" y2="1170.65" gradientUnits="userSpaceOnUse">
      <stop stop-color="#A58549"/>
      <stop offset="0.22" stop-color="#AA8A4D"/>
      <stop offset="0.47" stop-color="#B89858"/>
      <stop offset="0.75" stop-color="#CEB06A"/>
      <stop offset="1" stop-color="#EACC80"/>
    </linearGradient>
    <linearGradient id="paint6_linear" x1="3586.89" y1="1354.37" x2="7042.82" y2="1354.37" gradientUnits="userSpaceOnUse">
      <stop stop-color="#A58549"/>
      <stop offset="0.22" stop-color="#AA8A4D"/>
      <stop offset="0.47" stop-color="#B89858"/>
      <stop offset="0.75" stop-color="#CEB06A"/>
      <stop offset="1" stop-color="#EACC80"/>
    </linearGradient>
    <linearGradient id="paint7_linear" x1="1286.18" y1="1072.19" x2="12439" y2="1072.19" gradientUnits="userSpaceOnUse">
      <stop stop-color="#A58549"/>
      <stop offset="0.22" stop-color="#AA8A4D"/>
      <stop offset="0.47" stop-color="#B89858"/>
      <stop offset="0.75" stop-color="#CEB06A"/>
      <stop offset="1" stop-color="#EACC80"/>
    </linearGradient>
    <linearGradient id="paint8_linear" x1="-343.492" y1="1062.93" x2="4859.77" y2="1062.93" gradientUnits="userSpaceOnUse">
      <stop stop-color="#A58549"/>
      <stop offset="0.22" stop-color="#AA8A4D"/>
      <stop offset="0.47" stop-color="#B89858"/>
      <stop offset="0.75" stop-color="#CEB06A"/>
      <stop offset="1" stop-color="#EACC80"/>
    </linearGradient>
    <clipPath id="clip0">
      <rect width="188" height="43" fill="white"/>
    </clipPath>
  </defs>
</svg>
