<svg width="19" height="19" viewBox="0 0 19 19" fill="none" xmlns="http://www.w3.org/2000/svg">
<path d="M9.54395 18.332C4.57325 18.332 0.543945 14.3027 0.543945 9.33203C0.543945 4.36133 4.57325 0.332031 9.54395 0.332031C14.5146 0.332031 18.5439 4.36133 18.5439 9.33203C18.5439 14.3027 14.5146 18.332 9.54395 18.332ZM9.54395 16.532C11.4535 16.532 13.2849 15.7735 14.6351 14.4232C15.9854 13.0729 16.7439 11.2416 16.7439 9.33203C16.7439 7.42247 15.9854 5.59112 14.6351 4.24086C13.2849 2.8906 11.4535 2.13203 9.54395 2.13203C7.63439 2.13203 5.80304 2.8906 4.45278 4.24086C3.10251 5.59112 2.34395 7.42247 2.34395 9.33203C2.34395 11.2416 3.10251 13.0729 4.45278 14.4232C5.80304 15.7735 7.63439 16.532 9.54395 16.532ZM8.64394 4.83203H10.4439V6.63203H8.64394V4.83203ZM8.64394 8.43203H10.4439V13.832H8.64394V8.43203Z" fill="white"/>
</svg>
