<svg width="18" height="23" viewBox="0 0 18 23" fill="#EACC80"
  xmlns="http://www.w3.org/2000/svg">
  <path d="M9 22.3944L2.636 16.0304C1.37734 14.7717 0.520187 13.1681 0.172928 11.4223C-0.17433 9.67645 0.00390685 7.86686 0.685099 6.22233C1.36629 4.5778 2.51984 3.1722 3.99988 2.18327C5.47992 1.19434 7.21998 0.666504 9 0.666504C10.78 0.666504 12.5201 1.19434 14.0001 2.18327C15.4802 3.1722 16.6337 4.5778 17.3149 6.22233C17.9961 7.86686 18.1743 9.67645 17.8271 11.4223C17.4798 13.1681 16.6227 14.7717 15.364 16.0304L9 22.3944ZM13.95 14.6164C14.9289 13.6374 15.5955 12.3901 15.8656 11.0323C16.1356 9.67445 15.9969 8.26702 15.4671 6.98798C14.9373 5.70894 14.04 4.61573 12.8889 3.84659C11.7378 3.07746 10.3844 2.66693 9 2.66693C7.61557 2.66693 6.26222 3.07746 5.11109 3.84659C3.95996 4.61573 3.06275 5.70894 2.53292 6.98798C2.00308 8.26702 1.86442 9.67445 2.13445 11.0323C2.40449 12.3901 3.07111 13.6374 4.05 14.6164L9 19.5664L13.95 14.6164ZM9 11.6664C8.46957 11.6664 7.96086 11.4557 7.58579 11.0806C7.21072 10.7056 7 10.1969 7 9.66643C7 9.13599 7.21072 8.62729 7.58579 8.25221C7.96086 7.87714 8.46957 7.66643 9 7.66643C9.53044 7.66643 10.0391 7.87714 10.4142 8.25221C10.7893 8.62729 11 9.13599 11 9.66643C11 10.1969 10.7893 10.7056 10.4142 11.0806C10.0391 11.4557 9.53044 11.6664 9 11.6664Z" fill="current"/>
</svg>
