<svg width="120" height="28" viewBox="0 0 120 28" fill="none" xmlns="http://www.w3.org/2000/svg">
<g clip-path="url(#clip0)">
<path d="M119.929 22.8632L120 3.60219C120 1.77278 119.216 0.524048 116.327 0.524048H111.815L111.744 24.4558L116.307 26.1471C118.945 26.8405 119.929 24.6869 119.929 22.8632ZM117.63 23.41C117.63 24.1655 117.345 24.7489 116.658 24.7489C116.529 24.7471 116.401 24.73 116.276 24.6982L114.163 23.8526V1.71923H116.299C117.351 1.71923 117.653 2.12795 117.653 2.88903L117.63 23.41Z" fill="url(#paint0_linear)"/>
<path d="M8.18499 23.8244V0.524048H5.83502V12.2813L2.34713 12.9212V0.524048H0V26.288L2.34713 25.4959V14.3278L5.83502 13.6851V24.4389L8.18499 23.8244Z" fill="url(#paint1_linear)"/>
<path d="M32.6202 19.1282L29.0981 19.5736V0.524048H26.751V21.1944L32.047 20.5292L32.6202 19.1282Z" fill="url(#paint2_linear)"/>
<path d="M44.2588 18.4179L40.6626 18.6941V0.524048H38.3154V20.2614L43.8624 19.816L44.2588 18.4179Z" fill="url(#paint3_linear)"/>
<path d="M21.5604 4.04769C21.5748 3.50733 21.4796 2.96957 21.2803 2.46617C21.0811 1.96276 20.7818 1.5039 20.4002 1.11666C20.0187 0.729419 19.5625 0.421642 19.0586 0.211489C18.5547 0.00133687 18.0133 -0.106934 17.4664 -0.106934C16.9195 -0.106934 16.3782 0.00133687 15.8743 0.211489C15.3704 0.421642 14.9142 0.729419 14.5326 1.11666C14.1511 1.5039 13.8518 1.96276 13.6526 2.46617C13.4533 2.96957 13.3581 3.50733 13.3725 4.04769V18.2122C13.4007 19.2669 13.8444 20.2691 14.6091 21.0052C15.3737 21.7413 16.399 22.1533 17.4664 22.1533C18.5339 22.1533 19.5591 21.7413 20.3238 21.0052C21.0885 20.2691 21.5322 19.2669 21.5604 18.2122V4.04769ZM19.2132 19.3398C19.2228 19.5724 19.1846 19.8045 19.1011 20.0221C19.0176 20.2398 18.8905 20.4386 18.7273 20.6065C18.5642 20.7744 18.3684 20.9079 18.1517 20.9992C17.9351 21.0904 17.702 21.1375 17.4664 21.1375C17.2309 21.1375 16.9978 21.0904 16.7812 20.9992C16.5645 20.9079 16.3687 20.7744 16.2055 20.6065C16.0424 20.4386 15.9153 20.2398 15.8318 20.0221C15.7483 19.8045 15.7101 19.5724 15.7196 19.3398V3.00473C15.7121 2.56615 15.869 2.14033 16.1602 1.80931C16.4514 1.4783 16.8563 1.26551 17.2968 1.21197C17.5392 1.18836 17.784 1.21518 18.0153 1.2907C18.2466 1.36623 18.4594 1.48878 18.6399 1.65048C18.8204 1.81218 18.9647 2.00944 19.0635 2.22957C19.1622 2.4497 19.2132 2.68783 19.2132 2.92862V19.3398Z" fill="url(#paint4_linear)"/>
<path d="M93.2235 4.04769C93.2379 3.50733 93.1427 2.96957 92.9434 2.46617C92.7442 1.96276 92.4449 1.5039 92.0633 1.11666C91.6818 0.729419 91.2256 0.421642 90.7217 0.211489C90.2178 0.00133687 89.6764 -0.106934 89.1295 -0.106934C88.5826 -0.106934 88.0413 0.00133687 87.5374 0.211489C87.0335 0.421642 86.5773 0.729419 86.1957 1.11666C85.8141 1.5039 85.5149 1.96276 85.3156 2.46617C85.1164 2.96957 85.0212 3.50733 85.0356 4.04769V16.3716C85.0212 16.9119 85.1164 17.4497 85.3156 17.9531C85.5149 18.4565 85.8141 18.9153 86.1957 19.3026C86.5773 19.6898 87.0335 19.9976 87.5374 20.2078C88.0413 20.4179 88.5826 20.5262 89.1295 20.5262C89.6764 20.5262 90.2178 20.4179 90.7217 20.2078C91.2256 19.9976 91.6818 19.6898 92.0633 19.3026C92.4449 18.9153 92.7442 18.4565 92.9434 17.9531C93.1427 17.4497 93.2379 16.9119 93.2235 16.3716V4.04769ZM90.8763 17.3328C90.8581 17.7786 90.6661 18.2002 90.3405 18.5093C90.0149 18.8183 89.581 18.9909 89.1295 18.9909C88.6781 18.9909 88.2442 18.8183 87.9186 18.5093C87.593 18.2002 87.401 17.7786 87.3827 17.3328V3.00473C87.3751 2.56658 87.5317 2.14111 87.8223 1.81016C88.1129 1.47922 88.517 1.26616 88.957 1.21197C89.1997 1.18794 89.4447 1.21445 89.6764 1.28978C89.9081 1.36512 90.1212 1.4876 90.3021 1.64935C90.4829 1.81109 90.6274 2.0085 90.7263 2.22884C90.8253 2.44918 90.8764 2.68757 90.8763 2.92862V17.3328Z" fill="url(#paint5_linear)"/>
<path d="M106.601 4.04769C106.616 3.50732 106.521 2.96957 106.321 2.46617C106.122 1.96276 105.823 1.5039 105.441 1.11666C105.06 0.729418 104.603 0.421642 104.1 0.211489C103.596 0.00133684 103.054 -0.106934 102.507 -0.106934C101.961 -0.106934 101.419 0.00133684 100.915 0.211489C100.411 0.421642 99.9552 0.729418 99.5737 1.11666C99.1921 1.5039 98.8928 1.96276 98.6936 2.46617C98.4943 2.96957 98.3991 3.50732 98.4135 4.04769V17.9247C98.3991 18.4651 98.4943 19.0028 98.6936 19.5062C98.8928 20.0097 99.1921 20.4685 99.5737 20.8558C99.9552 21.243 100.411 21.5508 100.915 21.7609C101.419 21.9711 101.961 22.0793 102.507 22.0793C103.054 22.0793 103.596 21.9711 104.1 21.7609C104.603 21.5508 105.06 21.243 105.441 20.8558C105.823 20.4685 106.122 20.0097 106.321 19.5062C106.521 19.0028 106.616 18.4651 106.601 17.9247V4.04769ZM104.254 18.8859C104.236 19.3318 104.044 19.7533 103.718 20.0624C103.393 20.3715 102.959 20.5441 102.507 20.5441C102.056 20.5441 101.622 20.3715 101.296 20.0624C100.971 19.7533 100.779 19.3318 100.761 18.8859V3.00473C100.753 2.56658 100.91 2.14111 101.2 1.81016C101.491 1.47922 101.895 1.26616 102.335 1.21197C102.578 1.18794 102.823 1.21445 103.054 1.28978C103.286 1.36511 103.499 1.4876 103.68 1.64935C103.861 1.81109 104.005 2.0085 104.104 2.22884C104.203 2.44918 104.254 2.68757 104.254 2.92862V18.8859Z" fill="url(#paint6_linear)"/>
<path d="M80.9544 0.484619H79.4856L75.3047 17.0649L72.9633 7.76844L74.7999 0.484619H73.3312L72.2275 4.85942L71.1267 0.484619H68.4573L70.8957 10.1475L69.4383 15.9261L65.5483 0.484619H62.8789L67.6445 19.3707L70.0258 19.4102L71.6286 13.0537L73.257 19.5032L76.1204 19.6413L80.9544 0.484619Z" fill="url(#paint7_linear)"/>
<path d="M57.7938 0.524048H56.3507L53.0824 10.8099L49.8912 0.524048H47.4756L51.4198 13.5216V19.5567L53.7755 19.4834V13.5244L57.7938 0.524048Z" fill="url(#paint8_linear)"/>
<path d="M48.6189 27.3422C48.574 27.3029 48.5387 27.2541 48.5155 27.1995C48.4923 27.1448 48.4818 27.0857 48.4849 27.0265C48.4852 26.9042 48.532 26.7865 48.616 26.6967C48.7 26.6069 48.815 26.5516 48.9384 26.5417C48.9949 26.5357 49.0522 26.5416 49.1062 26.5591C49.1603 26.5766 49.21 26.6053 49.2521 26.6432C49.2952 26.6836 49.3289 26.7327 49.3511 26.7872C49.3732 26.8417 49.3832 26.9002 49.3804 26.9589C49.3838 27.0843 49.3366 27.206 49.2492 27.2971C49.1694 27.3856 49.058 27.4402 48.9384 27.4493C48.8805 27.4552 48.822 27.4487 48.7668 27.4302C48.7117 27.4117 48.6613 27.3817 48.6189 27.3422Z" fill="white"/>
<path d="M52.5241 26.9309C52.1559 26.755 51.8477 26.4768 51.6371 26.1304C51.4186 25.7687 51.3069 25.3536 51.3148 24.9324C51.3099 24.5041 51.4194 24.082 51.6322 23.7089C51.845 23.3357 52.1536 23.0246 52.5269 22.807C52.9132 22.582 53.3507 22.457 53.7989 22.4434C54.14 22.4265 54.4811 22.4764 54.8027 22.59C55.1009 22.7008 55.3678 22.8806 55.5813 23.1143L55.145 23.5427C54.9752 23.3688 54.7691 23.2336 54.5411 23.1465C54.313 23.0594 54.0685 23.0224 53.8245 23.0382C53.4908 23.0514 53.1659 23.1484 52.8806 23.32C52.6047 23.482 52.3773 23.7135 52.2218 23.9909C52.0628 24.2725 51.9812 24.5903 51.985 24.9127C51.9775 25.2284 52.0595 25.5398 52.2218 25.8119C52.377 26.0729 52.606 26.2836 52.8806 26.4179C53.1731 26.5616 53.4984 26.6276 53.8245 26.6096C54.0744 26.6039 54.3205 26.5477 54.5476 26.4444C54.7747 26.3412 54.978 26.193 55.145 26.0092L55.5813 26.4151C55.3664 26.658 55.0995 26.8506 54.7999 26.9789C54.4805 27.1152 54.138 27.1907 53.7903 27.2015C53.3533 27.2251 52.9174 27.1377 52.5241 26.9478" fill="white"/>
<path d="M58.7099 26.7783C58.3382 26.5834 58.0283 26.2908 57.8144 25.9327C57.6013 25.5634 57.4893 25.1457 57.4893 24.7206C57.4893 24.2955 57.6013 23.8778 57.8144 23.5085C58.0304 23.1521 58.3398 22.86 58.7099 22.6629C59.1046 22.4601 59.5434 22.3556 59.9882 22.3586C60.433 22.3615 60.8704 22.4718 61.2623 22.6798C61.6331 22.8815 61.9408 23.1798 62.1521 23.5423C62.3682 23.9133 62.4795 24.3348 62.4744 24.7629C62.4813 25.1867 62.3698 25.6041 62.1521 25.9693C61.9416 26.328 61.6332 26.6211 61.2623 26.815C60.869 27.0131 60.4316 27.11 59.9904 27.0968C59.544 27.1007 59.1038 26.9941 58.7099 26.7868V26.7783ZM60.9172 26.285C61.1881 26.1358 61.4129 25.9165 61.5675 25.6508C61.7264 25.3743 61.8081 25.0611 61.8042 24.7431C61.8078 24.4234 61.7261 24.1085 61.5675 23.8298C61.4126 23.5607 61.1882 23.337 60.9172 23.1815C60.6355 23.0212 60.3154 22.9385 59.9904 22.9419C59.6636 22.9347 59.3407 23.0135 59.0549 23.1702C58.7796 23.3193 58.5522 23.5421 58.399 23.8129C58.2419 24.0908 58.1594 24.4037 58.1594 24.722C58.1594 25.0403 58.2419 25.3532 58.399 25.6311C58.5547 25.8986 58.7816 26.1189 59.0549 26.2681C59.342 26.4177 59.6616 26.4959 59.9861 26.4959C60.3106 26.4959 60.6302 26.4177 60.9172 26.2681" fill="white"/>
<path d="M69.2762 27.3933C69.2762 26.2658 69.2762 25.1382 69.2762 24.0107C68.7058 24.9071 68.1412 25.8072 67.5822 26.7111L67.2742 26.6914C66.7038 25.7274 66.1391 24.7671 65.5802 23.8106V27.165L64.9385 27.1368V22.5111L65.4889 22.5337C66.1391 23.6499 66.7903 24.7699 67.4425 25.8937C68.0851 24.8488 68.7268 23.8059 69.3675 22.7648L69.9179 22.8071C69.9179 24.3518 69.9179 25.8965 69.9179 27.4412L69.2762 27.3933Z" fill="white"/>
</g>
<defs>
<linearGradient id="paint0_linear" x1="98.2917" y1="13.406" x2="168.22" y2="13.406" gradientUnits="userSpaceOnUse">
<stop stop-color="#A58549"/>
<stop offset="0.22" stop-color="#AA8A4D"/>
<stop offset="0.47" stop-color="#B89858"/>
<stop offset="0.75" stop-color="#CEB06A"/>
<stop offset="1" stop-color="#EACC80"/>
</linearGradient>
<linearGradient id="paint1_linear" x1="-1796.36" y1="1225.86" x2="224.842" y2="1225.86" gradientUnits="userSpaceOnUse">
<stop stop-color="#A58549"/>
<stop offset="0.22" stop-color="#AA8A4D"/>
<stop offset="0.47" stop-color="#B89858"/>
<stop offset="0.75" stop-color="#CEB06A"/>
<stop offset="1" stop-color="#EACC80"/>
</linearGradient>
<linearGradient id="paint2_linear" x1="-441.379" y1="796.954" x2="917.231" y2="796.954" gradientUnits="userSpaceOnUse">
<stop stop-color="#A58549"/>
<stop offset="0.22" stop-color="#AA8A4D"/>
<stop offset="0.47" stop-color="#B89858"/>
<stop offset="0.75" stop-color="#CEB06A"/>
<stop offset="1" stop-color="#EACC80"/>
</linearGradient>
<linearGradient id="paint3_linear" x1="-130.952" y1="728.24" x2="1292.61" y2="728.24" gradientUnits="userSpaceOnUse">
<stop stop-color="#A58549"/>
<stop offset="0.22" stop-color="#AA8A4D"/>
<stop offset="0.47" stop-color="#B89858"/>
<stop offset="0.75" stop-color="#CEB06A"/>
<stop offset="1" stop-color="#EACC80"/>
</linearGradient>
<linearGradient id="paint4_linear" x1="-1389.86" y1="878.725" x2="800.988" y2="878.725" gradientUnits="userSpaceOnUse">
<stop stop-color="#A58549"/>
<stop offset="0.22" stop-color="#AA8A4D"/>
<stop offset="0.47" stop-color="#B89858"/>
<stop offset="0.75" stop-color="#CEB06A"/>
<stop offset="1" stop-color="#EACC80"/>
</linearGradient>
<linearGradient id="paint5_linear" x1="1668.13" y1="747.225" x2="3958.5" y2="747.225" gradientUnits="userSpaceOnUse">
<stop stop-color="#A58549"/>
<stop offset="0.22" stop-color="#AA8A4D"/>
<stop offset="0.47" stop-color="#B89858"/>
<stop offset="0.75" stop-color="#CEB06A"/>
<stop offset="1" stop-color="#EACC80"/>
</linearGradient>
<linearGradient id="paint6_linear" x1="2289.51" y1="864.492" x2="4495.43" y2="864.492" gradientUnits="userSpaceOnUse">
<stop stop-color="#A58549"/>
<stop offset="0.22" stop-color="#AA8A4D"/>
<stop offset="0.47" stop-color="#B89858"/>
<stop offset="0.75" stop-color="#CEB06A"/>
<stop offset="1" stop-color="#EACC80"/>
</linearGradient>
<linearGradient id="paint7_linear" x1="820.964" y1="684.378" x2="7939.8" y2="684.378" gradientUnits="userSpaceOnUse">
<stop stop-color="#A58549"/>
<stop offset="0.22" stop-color="#AA8A4D"/>
<stop offset="0.47" stop-color="#B89858"/>
<stop offset="0.75" stop-color="#CEB06A"/>
<stop offset="1" stop-color="#EACC80"/>
</linearGradient>
<linearGradient id="paint8_linear" x1="-219.25" y1="678.467" x2="3101.98" y2="678.467" gradientUnits="userSpaceOnUse">
<stop stop-color="#A58549"/>
<stop offset="0.22" stop-color="#AA8A4D"/>
<stop offset="0.47" stop-color="#B89858"/>
<stop offset="0.75" stop-color="#CEB06A"/>
<stop offset="1" stop-color="#EACC80"/>
</linearGradient>
<clipPath id="clip0">
<rect width="120" height="27.4468" fill="white"/>
</clipPath>
</defs>
</svg>
