<svg width="81" height="81" viewBox="0 0 81 81" fill="none"
  xmlns="http://www.w3.org/2000/svg">
  <circle cx="40" cy="41" r="40" fill="url(#paint0_linear)"/>
  <path d="M28 32.1585C28.0022 31.8521 28.1283 31.5589 28.351 31.3421C28.5738 31.1253 28.8753 31.0024 29.1904 31H50.8096C51.4672 31 52 31.5192 52 32.1585V50.8415C51.9978 51.1479 51.8717 51.4411 51.649 51.6579C51.4263 51.8747 51.1247 51.9976 50.8096 52H29.1904C28.8746 51.9997 28.5718 51.8775 28.3486 51.6603C28.1254 51.443 28 51.1486 28 50.8415V32.1585ZM35.2 33.3333V49.6667H44.8V33.3333H35.2ZM30.4 33.3333V35.6667H32.8V33.3333H30.4ZM47.2 33.3333V35.6667H49.6V33.3333H47.2ZM30.4 38V40.3333H32.8V38H30.4ZM47.2 38V40.3333H49.6V38H47.2ZM30.4 42.6667V45H32.8V42.6667H30.4ZM47.2 42.6667V45H49.6V42.6667H47.2ZM30.4 47.3333V49.6667H32.8V47.3333H30.4ZM47.2 47.3333V49.6667H49.6V47.3333H47.2Z" fill="#A2A9AD"/>
  <path d="M63.7444 1L61.0607 5.93963L56 8.70882L61.0607 11.7025L63.7444 16.6422L66.5815 11.7025L71.6422 8.70882L66.5815 5.93963L63.7444 1Z" stroke="#A2A9AD" stroke-width="2" stroke-linejoin="round"/>
  <path d="M74.9361 15L73.2256 18.1484L70 19.9134L73.2256 21.8216L74.9361 24.97L76.7444 21.8216L79.97 19.9134L76.7444 18.1484L74.9361 15Z" stroke="#A2A9AD" stroke-width="1.75" stroke-linejoin="round"/>
  <path d="M64.035 25L62.9832 26.9358L61 28.021L62.9832 29.1942L64.035 31.13L65.1468 29.1942L67.13 28.021L65.1468 26.9358L64.035 25Z" stroke="#A2A9AD" stroke-width="1.25" stroke-linejoin="round"/>
  <defs>
    <linearGradient id="paint0_linear" x1="0" y1="41" x2="80" y2="41" gradientUnits="userSpaceOnUse">
      <stop stop-color="#1B2C38"/>
      <stop offset="1" stop-color="#00131F"/>
    </linearGradient>
  </defs>
</svg>
