<svg width="34" height="36" viewBox="0 0 34 36" fill="white"
  xmlns="http://www.w3.org/2000/svg">
  <path d="M17.1171 0.418457C8.00182 0.418457 0.61084 8.27313 0.61084 17.9603C0.61084 27.6475 8.00182 35.5021 17.1171 35.5021C26.2324 35.5021 33.6234 27.6475 33.6234 17.9603C33.6234 8.27313 26.2324 0.418457 17.1171 0.418457ZM17.1171 33.4034C9.54928 33.4034 2.5857 26.0029 2.5857 17.9603C2.5857 9.91768 9.54928 2.51721 17.1171 2.51721C24.6849 2.51721 31.6485 9.91768 31.6485 17.9603C31.6485 26.0029 24.6849 33.4034 17.1171 33.4034Z" fill="current"/>
  <path d="M23.805 17.2111L12.725 8.73649C12.6362 8.66788 12.531 8.6266 12.4211 8.61727C12.3113 8.60793 12.2012 8.6309 12.103 8.68362C12.0049 8.73634 11.9225 8.81674 11.8652 8.91585C11.8079 9.01497 11.7778 9.12891 11.7783 9.24497V26.1941C11.7783 26.7105 12.3321 27.0022 12.725 26.7026L23.805 18.228C23.8815 18.17 23.9438 18.0936 23.9868 18.0052C24.0298 17.9168 24.0522 17.8189 24.0522 17.7195C24.0522 17.6202 24.0298 17.5223 23.9868 17.4339C23.9438 17.3455 23.8815 17.2691 23.805 17.2111ZM13.3404 23.37V12.0691L21.2289 17.7195L13.3404 23.37Z" fill="current"/>
</svg>
