<svg width="66" height="66" viewBox="0 0 66 66" fill="#EACC80"
  xmlns="http://www.w3.org/2000/svg">
  <path d="M28.4015 65V57.2495H27.279L24.6257 63.7163H24.5397L21.8864 57.2495H20.7638V65H21.6662V59.0811H21.7306L24.1745 65H24.9909L27.4347 59.0811H27.4992V65H28.4015ZM32.647 65.1021C34.296 65.1021 35.3165 63.9634 35.3165 62.105C35.3165 60.2412 34.296 59.1079 32.647 59.1079C30.9981 59.1079 29.9776 60.2412 29.9776 62.105C29.9776 63.9634 30.9981 65.1021 32.647 65.1021ZM32.647 64.2695C31.5513 64.2695 30.9336 63.4746 30.9336 62.105C30.9336 60.73 31.5513 59.9404 32.647 59.9404C33.7427 59.9404 34.3604 60.73 34.3604 62.105C34.3604 63.4746 33.7427 64.2695 32.647 64.2695ZM36.7744 65H37.6982V61.4121C37.6982 60.5957 38.3373 60.0049 39.2182 60.0049C39.4008 60.0049 39.7338 60.0371 39.809 60.0586V59.1348C39.6909 59.1187 39.4975 59.1079 39.3471 59.1079C38.579 59.1079 37.913 59.5054 37.7412 60.0693H37.6552V59.21H36.7744V65ZM44.6453 63.5015C44.4036 64.0117 43.8988 64.2856 43.1522 64.2856C42.1693 64.2856 41.5301 63.5605 41.4818 62.4165V62.3735H45.6444V62.019C45.6444 60.2197 44.6937 59.1079 43.1307 59.1079C41.5408 59.1079 40.5203 60.2896 40.5203 62.1104C40.5203 63.9419 41.5247 65.1021 43.1307 65.1021C44.3983 65.1021 45.3006 64.4897 45.5692 63.5015H44.6453ZM43.1199 59.9243C44.0384 59.9243 44.6507 60.6011 44.6722 61.627H41.4818C41.5516 60.6011 42.1961 59.9243 43.1199 59.9243Z" fill="current"/>
  <g clip-path="url(#clip0)">
    <path d="M33 49C44.0446 49 53 40.0446 53 29C53 17.9554 44.0446 9 33 9C21.9554 9 13 17.9554 13 29C13 40.0446 21.9554 49 33 49ZM33 11.3929C42.1696 11.3929 50.6071 19.8304 50.6071 29C50.6071 38.1696 42.1696 46.6071 33 46.6071C23.8304 46.6071 15.3929 38.1696 15.3929 29C15.3929 19.8304 23.8304 11.3929 33 11.3929Z" fill="current"/>
    <path d="M31.9998 33.172L31.9998 21L33.9998 21L33.9998 33.172L39.3638 27.808L40.7778 29.222L32.9998 37L25.2218 29.222L26.6358 27.808L31.9998 33.172Z" fill="current"/>
  </g>
  <defs>
    <clipPath id="clip0">
      <rect width="40" height="40" fill="current" transform="translate(53 49) rotate(-180)"/>
    </clipPath>
  </defs>
</svg>
