<svg width="132" height="132" viewBox="0 0 132 132" fill="none" xmlns="http://www.w3.org/2000/svg">
<circle cx="66" cy="66" r="66" fill="url(#paint0_linear)"/>
<ellipse cx="65.5" cy="68.5" rx="31.5" ry="31.5" transform="rotate(-180 65.5 68.5)" fill="url(#paint1_radial)"/>
<circle cx="65.6667" cy="68.3337" r="35.1667" stroke="#EACC80" stroke-width="3"/>
<path d="M59.0669 28.7314C63.8336 27.7564 67.8669 27.7558 72.2669 28.7316" stroke="#EACC80" stroke-width="3"/>
<path d="M52.5535 72.7324C54.4519 72.7324 55.5418 71.127 55.5418 68.3203C55.5418 65.5195 54.4343 63.8789 52.5535 63.8789C50.6609 63.8789 49.5535 65.5137 49.5535 68.3027C49.5535 71.1152 50.6492 72.7324 52.5535 72.7324ZM52.5535 71.8125C51.3054 71.8125 50.614 70.5645 50.614 68.3027C50.614 66.0703 51.3172 64.8047 52.5535 64.8047C53.7898 64.8047 54.4812 66.0586 54.4812 68.3027C54.4812 70.5703 53.8015 71.8125 52.5535 71.8125ZM60.1121 72.7324C62.0105 72.7324 63.1004 71.127 63.1004 68.3203C63.1004 65.5195 61.9929 63.8789 60.1121 63.8789C58.2195 63.8789 57.1121 65.5137 57.1121 68.3027C57.1121 71.1152 58.2078 72.7324 60.1121 72.7324ZM60.1121 71.8125C58.864 71.8125 58.1726 70.5645 58.1726 68.3027C58.1726 66.0703 58.8757 64.8047 60.1121 64.8047C61.3484 64.8047 62.0398 66.0586 62.0398 68.3027C62.0398 70.5703 61.3601 71.8125 60.1121 71.8125ZM65.6668 66.7969C66.0886 66.7969 66.4285 66.4512 66.4285 66.0352C66.4285 65.6133 66.0886 65.2734 65.6668 65.2734C65.2507 65.2734 64.905 65.6133 64.905 66.0352C64.905 66.4512 65.2507 66.7969 65.6668 66.7969ZM65.6668 71.332C66.0886 71.332 66.4285 70.9863 66.4285 70.5703C66.4285 70.1484 66.0886 69.8086 65.6668 69.8086C65.2507 69.8086 64.905 70.1484 64.905 70.5703C64.905 70.9863 65.2507 71.332 65.6668 71.332ZM71.2332 72.7324C73.1316 72.7324 74.2215 71.127 74.2215 68.3203C74.2215 65.5195 73.114 63.8789 71.2332 63.8789C69.3406 63.8789 68.2332 65.5137 68.2332 68.3027C68.2332 71.1152 69.3289 72.7324 71.2332 72.7324ZM71.2332 71.8125C69.9851 71.8125 69.2937 70.5645 69.2937 68.3027C69.2937 66.0703 69.9968 64.8047 71.2332 64.8047C72.4695 64.8047 73.1609 66.0586 73.1609 68.3027C73.1609 70.5703 72.4812 71.8125 71.2332 71.8125ZM78.7918 72.7324C80.6902 72.7324 81.78 71.127 81.78 68.3203C81.78 65.5195 80.6726 63.8789 78.7918 63.8789C76.8992 63.8789 75.7918 65.5137 75.7918 68.3027C75.7918 71.1152 76.8875 72.7324 78.7918 72.7324ZM78.7918 71.8125C77.5437 71.8125 76.8523 70.5645 76.8523 68.3027C76.8523 66.0703 77.5554 64.8047 78.7918 64.8047C80.0281 64.8047 80.7195 66.0586 80.7195 68.3027C80.7195 70.5703 80.0398 71.8125 78.7918 71.8125Z" fill="#EACC80"/>
<defs>
<linearGradient id="paint0_linear" x1="0" y1="66" x2="132" y2="66" gradientUnits="userSpaceOnUse">
<stop stop-color="#1B2C38"/>
<stop offset="1" stop-color="#00131F"/>
</linearGradient>
<radialGradient id="paint1_radial" cx="0" cy="0" r="1" gradientUnits="userSpaceOnUse" gradientTransform="translate(65.5 68.5) rotate(90) scale(31.5)">
<stop stop-color="#EACC80" stop-opacity="0"/>
<stop offset="1" stop-color="#EACC80" stop-opacity="0.2"/>
</radialGradient>
</defs>
</svg>
