<svg width="13" height="16" viewBox="0 0 13 16" fill="none" xmlns="http://www.w3.org/2000/svg">
<path d="M12.1065 8.66729L1.50747 15.7333C1.43217 15.7834 1.3447 15.8121 1.25436 15.8165C1.16402 15.8208 1.0742 15.8005 0.994468 15.7578C0.914734 15.7151 0.848072 15.6516 0.801582 15.574C0.755092 15.4965 0.730515 15.4077 0.730469 15.3173V1.18529C0.730515 1.09485 0.755092 1.00611 0.801582 0.928532C0.848072 0.850953 0.914734 0.787437 0.994468 0.744748C1.0742 0.702059 1.16402 0.681797 1.25436 0.686118C1.3447 0.69044 1.43217 0.719184 1.50747 0.769289L12.1065 7.83529C12.1749 7.88095 12.2311 7.94281 12.2699 8.01538C12.3088 8.08795 12.3291 8.16898 12.3291 8.25129C12.3291 8.3336 12.3088 8.41463 12.2699 8.4872C12.2311 8.55977 12.1749 8.62163 12.1065 8.66729Z" fill="white"/>
</svg>
