<svg width="40" height="40" viewBox="0 0 40 40" fill="white"
  xmlns="http://www.w3.org/2000/svg">
  <g clip-path="url(#clip0)">
    <path d="M20 0C8.95536 0 0 8.95536 0 20C0 31.0446 8.95536 40 20 40C31.0446 40 40 31.0446 40 20C40 8.95536 31.0446 0 20 0ZM20 37.6071C10.8304 37.6071 2.39286 29.1696 2.39286 20C2.39286 10.8304 10.8304 2.39286 20 2.39286C29.1696 2.39286 37.6071 10.8304 37.6071 20C37.6071 29.1696 29.1696 37.6071 20 37.6071Z" fill="current"/>
    <path d="M21.0002 15.828V28H19.0002V15.828L13.6362 21.192L12.2222 19.778L20.0002 12L27.7782 19.778L26.3642 21.192L21.0002 15.828Z" fill="current"/>
  </g>
  <defs>
    <clipPath id="clip0">
      <rect width="40" height="40" fill="current"/>
    </clipPath>
  </defs>
</svg>
