<svg width="272" height="106" viewBox="0 0 272 106" fill="none"
  xmlns="http://www.w3.org/2000/svg">
  <g clip-path="url(#clip0)">
    <path d="M215.905 35.8483L216 9.99413C216 7.53849 214.954 5.8623 211.102 5.8623H205.087L204.992 37.9861L211.076 40.2563C214.593 41.1871 215.905 38.2964 215.905 35.8483ZM212.84 36.5823C212.84 37.5964 212.46 38.3796 211.543 38.3796C211.372 38.3771 211.2 38.3542 211.034 38.3115L208.216 37.1764V7.4666H211.064C212.468 7.4666 212.871 8.01524 212.871 9.03685L212.84 36.5823Z" fill="url(#paint0_linear)"/>
    <path d="M66.9133 37.1385V5.8623H63.78V21.6442L59.1295 22.5031V5.8623H56V40.4455L59.1295 39.3823V24.3912L63.78 23.5285V37.9634L66.9133 37.1385Z" fill="url(#paint1_linear)"/>
    <path d="M99.4936 30.8349L94.7975 31.4327V5.8623H91.668V33.6083L98.7293 32.7154L99.4936 30.8349Z" fill="url(#paint2_linear)"/>
    <path d="M115.012 29.8814L110.217 30.2522V5.8623H107.087V32.3559L114.483 31.7581L115.012 29.8814Z" fill="url(#paint3_linear)"/>
    <path d="M84.7476 10.5924C84.7669 9.86708 84.6399 9.14525 84.3743 8.46952C84.1086 7.7938 83.7096 7.17786 83.2008 6.65807C82.692 6.13827 82.0838 5.72514 81.4119 5.44305C80.7401 5.16096 80.0183 5.01563 79.2891 5.01562C78.5599 5.01563 77.8381 5.16096 77.1662 5.44305C76.4944 5.72514 75.8861 6.13827 75.3773 6.65807C74.8686 7.17786 74.4696 7.7938 74.2039 8.46952C73.9382 9.14525 73.8113 9.86708 73.8305 10.5924V29.6056C73.8681 31.0213 74.4596 32.3665 75.4792 33.3546C76.4988 34.3427 77.8658 34.8957 79.2891 34.8957C80.7123 34.8957 82.0793 34.3427 83.0989 33.3546C84.1185 32.3665 84.7101 31.0213 84.7476 29.6056V10.5924ZM81.6181 31.1191C81.6308 31.4313 81.58 31.7429 81.4686 32.0351C81.3573 32.3272 81.1878 32.594 80.9703 32.8194C80.7527 33.0448 80.4917 33.2241 80.2028 33.3466C79.9139 33.469 79.6031 33.5322 79.2891 33.5322C78.975 33.5322 78.6643 33.469 78.3754 33.3466C78.0865 33.2241 77.8254 33.0448 77.6079 32.8194C77.3904 32.594 77.2208 32.3272 77.1095 32.0351C76.9982 31.7429 76.9473 31.4313 76.96 31.1191V9.19244C76.95 8.60373 77.1592 8.03214 77.5475 7.58782C77.9357 7.14349 78.4755 6.85787 79.0628 6.78599C79.3861 6.75431 79.7124 6.79031 80.0209 6.89169C80.3293 6.99306 80.613 7.15757 80.8537 7.37462C81.0944 7.59167 81.2868 7.85645 81.4184 8.15194C81.5501 8.44742 81.6181 8.76706 81.6181 9.09028V31.1191Z" fill="url(#paint4_linear)"/>
    <path d="M180.297 10.5924C180.317 9.86708 180.19 9.14525 179.924 8.46952C179.658 7.7938 179.259 7.17786 178.751 6.65807C178.242 6.13827 177.634 5.72514 176.962 5.44305C176.29 5.16096 175.568 5.01562 174.839 5.01562C174.11 5.01562 173.388 5.16096 172.716 5.44305C172.044 5.72514 171.436 6.13827 170.927 6.65807C170.418 7.17786 170.019 7.7938 169.754 8.46952C169.488 9.14525 169.361 9.86708 169.38 10.5924V27.1348C169.361 27.8602 169.488 28.582 169.754 29.2577C170.019 29.9335 170.418 30.5494 170.927 31.0692C171.436 31.589 172.044 32.0021 172.716 32.2842C173.388 32.5663 174.11 32.7116 174.839 32.7116C175.568 32.7116 176.29 32.5663 176.962 32.2842C177.634 32.0021 178.242 31.589 178.751 31.0692C179.259 30.5494 179.658 29.9335 179.924 29.2577C180.19 28.582 180.317 27.8602 180.297 27.1348V10.5924ZM177.168 28.4251C177.144 29.0235 176.888 29.5894 176.453 30.0043C176.019 30.4192 175.441 30.6508 174.839 30.6508C174.237 30.6508 173.658 30.4192 173.224 30.0043C172.79 29.5894 172.534 29.0235 172.51 28.4251V9.19244C172.5 8.60431 172.708 8.0332 173.096 7.58896C173.483 7.14473 174.022 6.85874 174.609 6.78599C174.932 6.75374 175.259 6.78933 175.568 6.89045C175.877 6.99157 176.161 7.15598 176.402 7.37309C176.643 7.5902 176.836 7.85518 176.968 8.15095C177.1 8.44672 177.168 8.76671 177.168 9.09028V28.4251Z" fill="url(#paint5_linear)"/>
    <path d="M198.135 10.5924C198.155 9.86707 198.028 9.14525 197.762 8.46952C197.496 7.79379 197.097 7.17786 196.589 6.65806C196.08 6.13827 195.471 5.72514 194.8 5.44305C194.128 5.16096 193.406 5.01562 192.677 5.01562C191.948 5.01562 191.226 5.16096 190.554 5.44305C189.882 5.72514 189.274 6.13827 188.765 6.65806C188.256 7.17786 187.857 7.79379 187.592 8.46952C187.326 9.14525 187.199 9.86707 187.218 10.5924V29.2197C187.199 29.945 187.326 30.6668 187.592 31.3426C187.857 32.0183 188.256 32.6342 188.765 33.154C189.274 33.6738 189.882 34.0869 190.554 34.369C191.226 34.6511 191.948 34.7965 192.677 34.7965C193.406 34.7965 194.128 34.6511 194.8 34.369C195.471 34.0869 196.08 33.6738 196.589 33.154C197.097 32.6342 197.496 32.0183 197.762 31.3426C198.028 30.6668 198.155 29.945 198.135 29.2197V10.5924ZM195.006 30.5099C194.982 31.1084 194.726 31.6742 194.291 32.0891C193.857 32.504 193.279 32.7357 192.677 32.7357C192.075 32.7357 191.496 32.504 191.062 32.0891C190.628 31.6742 190.372 31.1084 190.348 30.5099V9.19244C190.338 8.6043 190.546 8.0332 190.934 7.58896C191.321 7.14473 191.86 6.85873 192.447 6.78599C192.77 6.75374 193.097 6.78932 193.406 6.89045C193.715 6.99157 193.999 7.15598 194.24 7.37309C194.481 7.5902 194.674 7.85518 194.806 8.15095C194.938 8.44672 195.006 8.76671 195.006 9.09028V30.5099Z" fill="url(#paint6_linear)"/>
    <path d="M163.939 5.81006H161.981L156.407 28.0659L153.285 15.5872L155.734 5.81006H153.775L152.304 11.6824L150.836 5.81006H147.277L150.528 18.7807L148.585 26.5373L143.398 5.81006H139.839L146.193 31.161L149.368 31.214L151.505 22.6817L153.676 31.3388L157.494 31.5242L163.939 5.81006Z" fill="url(#paint7_linear)"/>
    <path d="M133.059 5.8623H131.135L126.777 19.6691L122.522 5.8623H119.301L124.56 23.309V31.41L127.701 31.3116V23.3128L133.059 5.8623Z" fill="url(#paint8_linear)"/>
    <path d="M120.826 41.8608C120.766 41.8081 120.719 41.7426 120.688 41.6692C120.657 41.5958 120.643 41.5165 120.647 41.437C120.648 41.2729 120.71 41.1149 120.822 40.9943C120.934 40.8738 121.087 40.7995 121.252 40.7862C121.327 40.7782 121.404 40.7862 121.476 40.8097C121.548 40.8331 121.614 40.8716 121.67 40.9224C121.728 40.9767 121.773 41.0426 121.802 41.1158C121.832 41.1889 121.845 41.2675 121.841 41.3462C121.846 41.5147 121.783 41.678 121.666 41.8003C121.56 41.919 121.411 41.9923 121.252 42.0046C121.175 42.0125 121.097 42.0037 121.023 41.9789C120.95 41.9541 120.882 41.9138 120.826 41.8608Z" fill="white"/>
    <path d="M126.031 41.3087C125.54 41.0726 125.129 40.6992 124.849 40.2342C124.557 39.7486 124.408 39.1915 124.419 38.6261C124.412 38.0511 124.558 37.4846 124.842 36.9837C125.126 36.4828 125.537 36.0653 126.035 35.7732C126.55 35.4712 127.133 35.3033 127.731 35.2851C128.186 35.2625 128.641 35.3293 129.07 35.4818C129.467 35.6306 129.823 35.8719 130.108 36.1856L129.526 36.7607C129.299 36.5273 129.025 36.3458 128.721 36.2289C128.417 36.1119 128.091 36.0623 127.765 36.0834C127.32 36.1012 126.887 36.2314 126.507 36.4618C126.139 36.6792 125.836 36.99 125.628 37.3623C125.416 37.7402 125.307 38.1668 125.313 38.5996C125.302 39.0234 125.412 39.4415 125.628 39.8066C125.835 40.157 126.14 40.4398 126.507 40.6201C126.897 40.8129 127.33 40.9016 127.765 40.8774C128.098 40.8698 128.427 40.7943 128.729 40.6557C129.032 40.5171 129.303 40.3183 129.526 40.0715L130.108 40.6163C129.821 40.9424 129.465 41.2009 129.066 41.3731C128.64 41.556 128.183 41.6574 127.72 41.672C127.137 41.7036 126.556 41.5863 126.031 41.3314" fill="white"/>
    <path d="M134.279 41.1036C133.783 40.842 133.37 40.4492 133.085 39.9685C132.801 39.4729 132.651 38.9121 132.651 38.3415C132.651 37.7709 132.801 37.2102 133.085 36.7145C133.373 36.2361 133.785 35.844 134.279 35.5794C134.805 35.3072 135.39 35.167 135.983 35.171C136.576 35.1749 137.16 35.3229 137.682 35.6021C138.176 35.8729 138.587 36.2734 138.869 36.7599C139.157 37.2579 139.305 37.8237 139.298 38.3983C139.307 38.9671 139.159 39.5275 138.869 40.0177C138.588 40.4992 138.177 40.8926 137.682 41.1528C137.158 41.4187 136.574 41.5489 135.986 41.5312C135.391 41.5364 134.804 41.3933 134.279 41.115V41.1036ZM137.222 40.4415C137.583 40.2411 137.883 39.9469 138.089 39.5901C138.301 39.2191 138.41 38.7986 138.405 38.3718C138.409 37.9427 138.301 37.5199 138.089 37.1459C137.882 36.7846 137.583 36.4843 137.222 36.2756C136.846 36.0605 136.42 35.9494 135.986 35.954C135.55 35.9443 135.12 36.05 134.739 36.2605C134.372 36.4606 134.069 36.7596 133.864 37.1232C133.655 37.4961 133.545 37.9162 133.545 38.3434C133.545 38.7706 133.655 39.1907 133.864 39.5637C134.072 39.9228 134.374 40.2185 134.739 40.4188C135.122 40.6196 135.548 40.7245 135.98 40.7245C136.413 40.7245 136.839 40.6196 137.222 40.4188" fill="white"/>
    <path d="M148.368 41.9294C148.368 40.4159 148.368 38.9024 148.368 37.3889C147.607 38.5921 146.854 39.8004 146.109 41.0137L145.698 40.9872C144.938 39.6932 144.185 38.4042 143.44 37.1203V41.6229L142.584 41.5851V35.376L143.318 35.4062C144.185 36.9046 145.053 38.408 145.923 39.9164C146.779 38.5139 147.635 37.114 148.489 35.7165L149.223 35.7733C149.223 37.8467 149.223 39.9202 149.223 41.9937L148.368 41.9294Z" fill="white"/>
  </g>
  <path d="M39.312 43.968C39.264 44.256 39.24 44.544 39.24 44.832C39.24 45.072 39.24 45.36 39.24 45.696C39.24 46.704 39.408 47.544 39.744 48.216C40.128 48.888 40.608 49.44 41.184 49.872C41.76 50.256 42.408 50.544 43.128 50.736C43.896 50.88 44.664 50.952 45.432 50.952C46.728 50.952 48.048 50.64 49.392 50.016C50.736 49.344 51.96 48.456 53.064 47.352C54.168 46.2 55.056 44.88 55.728 43.392C56.448 41.904 56.808 40.344 56.808 38.712C56.808 36.696 56.256 35.352 55.152 34.68C54.048 33.96 52.56 33.6 50.688 33.6C48.528 33.6 46.152 34.128 43.56 35.184C40.968 36.192 38.328 37.608 35.64 39.432C33 41.256 30.432 43.416 27.936 45.912C25.488 48.408 23.28 51.12 21.312 54.048C19.392 56.976 17.856 60.048 16.704 63.264C15.552 66.48 14.976 69.744 14.976 73.056C14.976 74.4 15.144 75.744 15.48 77.088C15.816 78.432 16.344 79.656 17.064 80.76C17.784 81.816 18.72 82.68 19.872 83.352C21.024 83.976 22.416 84.288 24.048 84.288C26.4 84.288 28.632 83.76 30.744 82.704C32.904 81.6 34.776 80.184 36.36 78.456C37.992 76.728 39.288 74.808 40.248 72.696C41.208 70.536 41.688 68.4 41.688 66.288C41.688 64.368 41.112 62.904 39.96 61.896C38.856 60.888 37.344 60.384 35.424 60.384L35.352 59.52C38.376 59.52 40.608 60.12 42.048 61.32C43.536 62.52 44.28 64.56 44.28 67.44C44.28 69.12 43.824 70.992 42.912 73.056C42.048 75.12 40.752 77.064 39.024 78.888C37.296 80.664 35.136 82.152 32.544 83.352C30 84.552 27.072 85.152 23.76 85.152C21.264 85.152 19.152 84.72 17.424 83.856C15.744 82.992 14.376 81.912 13.32 80.616C12.264 79.32 11.496 77.928 11.016 76.44C10.584 74.904 10.368 73.488 10.368 72.192C10.368 69.168 11.016 66.096 12.312 62.976C13.608 59.808 15.312 56.76 17.424 53.832C19.584 50.904 22.056 48.168 24.84 45.624C27.624 43.032 30.48 40.8 33.408 38.928C36.384 37.008 39.336 35.496 42.264 34.392C45.24 33.288 47.952 32.736 50.4 32.736C53.424 32.736 55.68 33.36 57.168 34.608C58.656 35.856 59.4 37.68 59.4 40.08C59.4 41.76 58.992 43.32 58.176 44.76C57.408 46.2 56.352 47.448 55.008 48.504C53.712 49.512 52.224 50.328 50.544 50.952C48.864 51.528 47.136 51.816 45.36 51.816C43.488 51.816 41.88 51.384 40.536 50.52C39.192 49.608 38.472 48.072 38.376 45.912C38.376 45.624 38.376 45.312 38.376 44.976C38.376 44.592 38.4 44.256 38.448 43.968H39.312ZM89.2434 65.784C88.0914 67.08 86.7954 68.112 85.3554 68.88C83.9154 69.648 82.4994 70.032 81.1074 70.032C79.7634 70.032 78.6114 69.744 77.6514 69.168C76.6914 68.544 75.9474 67.824 75.4194 67.008H75.2754C74.7954 68.832 73.9074 70.776 72.6114 72.84C71.3154 74.904 69.7554 76.8 67.9314 78.528C66.1554 80.256 64.1874 81.696 62.0274 82.848C59.8674 84 57.6594 84.576 55.4034 84.576C53.3394 84.576 51.7794 83.976 50.7234 82.776C49.6674 81.576 49.1394 79.968 49.1394 77.952C49.1394 76.896 49.4034 75.672 49.9314 74.28C50.4594 72.888 51.1794 71.496 52.0914 70.104C53.0514 68.664 54.1554 67.272 55.4034 65.928C56.6994 64.536 58.0914 63.312 59.5794 62.256C61.0674 61.152 62.6274 60.288 64.2594 59.664C65.9394 58.992 67.6194 58.656 69.2994 58.656C71.2674 58.656 72.7794 59.232 73.8354 60.384C74.9394 61.536 75.5394 63.024 75.6354 64.848C75.7314 65.952 76.2354 66.984 77.1474 67.944C78.1074 68.856 79.4034 69.312 81.0354 69.312C82.4754 69.312 83.8194 68.952 85.0674 68.232C86.3634 67.512 87.5634 66.576 88.6674 65.424L89.2434 65.784ZM53.0274 79.68C53.0274 80.928 53.2674 81.912 53.7474 82.632C54.2274 83.352 54.9474 83.712 55.9074 83.712C57.2034 83.712 58.4754 83.376 59.7234 82.704C61.0194 81.984 62.2434 81.072 63.3954 79.968C64.5954 78.816 65.6994 77.52 66.7074 76.08C67.7154 74.64 68.5794 73.152 69.2994 71.616C70.0674 70.08 70.6674 68.592 71.0994 67.152C71.5314 65.664 71.7474 64.32 71.7474 63.12C71.7474 62.112 71.4834 61.272 70.9554 60.6C70.4754 59.88 69.7074 59.52 68.6514 59.52C67.6434 59.52 66.5634 59.856 65.4114 60.528C64.2594 61.152 63.0834 61.992 61.8834 63.048C60.7314 64.104 59.6274 65.328 58.5714 66.72C57.5154 68.112 56.5554 69.552 55.6914 71.04C54.8754 72.528 54.2274 74.016 53.7474 75.504C53.2674 76.992 53.0274 78.384 53.0274 79.68ZM96.3596 59.232L86.8556 72.408L86.9996 72.552C88.0076 71.352 89.1836 69.96 90.5276 68.376C91.8716 66.744 93.3116 65.208 94.8476 63.768C96.3836 62.328 97.9676 61.128 99.5996 60.168C101.28 59.16 102.936 58.656 104.568 58.656C106.008 58.656 107.112 59.064 107.88 59.88C108.696 60.648 109.104 61.656 109.104 62.904C109.104 63.672 108.816 64.584 108.24 65.64C107.712 66.696 107.04 67.824 106.224 69.024C105.408 70.224 104.52 71.448 103.56 72.696C102.6 73.944 101.712 75.144 100.896 76.296C100.08 77.4 99.3836 78.432 98.8076 79.392C98.2796 80.304 98.0156 81.072 98.0156 81.696C98.0156 83.04 98.6876 83.712 100.032 83.712C101.568 83.712 103.2 83.208 104.928 82.2C106.656 81.144 108.72 79.392 111.12 76.944C112.08 75.984 113.04 74.928 114 73.776C115.008 72.624 115.968 71.496 116.88 70.392C117.792 69.24 118.608 68.16 119.328 67.152C120.096 66.144 120.696 65.304 121.128 64.632L121.632 64.92C120.672 66.36 119.424 68.088 117.888 70.104C116.4 72.072 114.768 74.016 112.992 75.936C111.936 77.088 110.856 78.192 109.752 79.248C108.648 80.304 107.544 81.24 106.44 82.056C105.336 82.824 104.232 83.448 103.128 83.928C102.072 84.36 101.016 84.576 99.9596 84.576C98.5676 84.576 97.4156 84.192 96.5036 83.424C95.5916 82.656 95.1356 81.6 95.1356 80.256C95.1356 78.816 95.7116 77.256 96.8636 75.576C98.0156 73.848 99.2876 72.12 100.68 70.392C102.072 68.664 103.344 67.008 104.496 65.424C105.648 63.84 106.224 62.448 106.224 61.248C106.224 60.672 106.032 60.24 105.648 59.952C105.264 59.664 104.76 59.52 104.136 59.52C102.936 59.52 101.592 59.976 100.104 60.888C98.6156 61.752 97.0796 62.928 95.4956 64.416C93.9596 65.856 92.3996 67.488 90.8156 69.312C89.2796 71.088 87.8396 72.888 86.4956 74.712C85.1516 76.488 83.9516 78.216 82.8956 79.896C81.8396 81.528 81.0476 82.896 80.5196 84H76.0556C77.3036 81.888 78.6476 79.752 80.0876 77.592C81.4796 75.384 82.8716 73.224 84.2636 71.112C85.6556 68.952 86.9756 66.888 88.2236 64.92C89.5196 62.904 90.6716 61.08 91.6796 59.448L96.3596 59.232ZM145.524 65.928C144.42 67.704 142.956 69.624 141.132 71.688C139.356 73.704 137.412 75.6 135.3 77.376C132.708 79.536 130.116 81.288 127.524 82.632C124.932 83.928 122.388 84.576 119.892 84.576C118.116 84.576 116.628 84.12 115.428 83.208C114.228 82.248 113.628 80.856 113.628 79.032C113.628 76.728 114.276 74.376 115.572 71.976C116.916 69.576 118.572 67.392 120.54 65.424C122.556 63.408 124.74 61.776 127.092 60.528C129.492 59.28 131.748 58.656 133.86 58.656C135.252 58.656 136.452 58.92 137.46 59.448C138.516 59.928 139.044 60.792 139.044 62.04C139.044 62.616 138.876 63.096 138.54 63.48C138.252 63.864 137.868 64.176 137.388 64.416C136.956 64.656 136.452 64.848 135.876 64.992C135.348 65.088 134.868 65.16 134.436 65.208C134.628 64.728 134.796 64.248 134.94 63.768C135.084 63.24 135.156 62.712 135.156 62.184C135.156 60.408 134.316 59.52 132.636 59.52C131.388 59.52 129.9 60.144 128.172 61.392C126.492 62.592 124.884 64.128 123.348 66C121.86 67.872 120.588 69.936 119.532 72.192C118.476 74.448 117.948 76.632 117.948 78.744C117.948 80.04 118.236 81.144 118.812 82.056C119.436 82.968 120.372 83.424 121.62 83.424C123.3 83.424 125.22 82.872 127.38 81.768C129.588 80.664 131.724 79.296 133.788 77.664C135.948 75.984 138.012 74.064 139.98 71.904C141.996 69.696 143.676 67.56 145.02 65.496L145.524 65.928ZM153.696 59.232C151.056 63.024 148.824 66.216 147 68.808C145.176 71.4 143.688 73.56 142.536 75.288C141.432 77.016 140.616 78.384 140.088 79.392C139.608 80.4 139.368 81.216 139.368 81.84C139.368 83.088 139.872 83.712 140.88 83.712C141.84 83.712 142.944 83.376 144.192 82.704C145.488 81.984 146.832 81.072 148.224 79.968C149.616 78.864 151.008 77.616 152.4 76.224C153.792 74.832 155.088 73.464 156.288 72.12C157.536 70.728 158.616 69.408 159.528 68.16C160.488 66.864 161.184 65.808 161.616 64.992L162.192 65.352C161.616 66.312 160.824 67.464 159.816 68.808C158.856 70.152 157.752 71.544 156.504 72.984C155.256 74.376 153.936 75.768 152.544 77.16C151.152 78.552 149.736 79.8 148.296 80.904C146.856 82.008 145.44 82.896 144.048 83.568C142.704 84.24 141.456 84.576 140.304 84.576C139.008 84.576 138.048 84.216 137.424 83.496C136.8 82.776 136.488 81.984 136.488 81.12C136.488 80.112 136.704 79.056 137.136 77.952C137.616 76.8 138.36 75.408 139.368 73.776C140.376 72.144 141.672 70.176 143.256 67.872C144.888 65.52 146.832 62.64 149.088 59.232H153.696ZM157.872 45.84C158.544 45.84 159.096 46.08 159.528 46.56C159.96 46.992 160.176 47.544 160.176 48.216C160.176 48.888 159.96 49.464 159.528 49.944C159.096 50.376 158.544 50.592 157.872 50.592C157.2 50.592 156.648 50.376 156.216 49.944C155.784 49.464 155.568 48.888 155.568 48.216C155.568 47.544 155.784 46.992 156.216 46.56C156.648 46.08 157.2 45.84 157.872 45.84ZM174.805 61.536C174.805 60.864 174.613 60.36 174.229 60.024C173.893 59.688 173.461 59.52 172.933 59.52C171.925 59.52 170.821 59.928 169.621 60.744C168.469 61.512 167.317 62.496 166.165 63.696C165.013 64.848 163.957 66.096 162.997 67.44C162.085 68.784 161.389 69.984 160.909 71.04C161.965 70.848 163.285 70.488 164.869 69.96C166.453 69.384 167.965 68.688 169.405 67.872C170.893 67.056 172.165 66.12 173.221 65.064C174.277 63.96 174.805 62.784 174.805 61.536ZM186.469 65.352C185.749 66.552 184.837 67.872 183.733 69.312C182.677 70.752 181.453 72.192 180.061 73.632C178.717 75.024 177.253 76.392 175.669 77.736C174.133 79.032 172.525 80.208 170.845 81.264C169.165 82.272 167.461 83.088 165.733 83.712C164.053 84.288 162.397 84.576 160.765 84.576C158.749 84.576 157.189 84.072 156.085 83.064C154.981 82.008 154.429 80.52 154.429 78.6C154.429 76.488 155.053 74.28 156.301 71.976C157.597 69.624 159.229 67.464 161.197 65.496C163.165 63.528 165.325 61.896 167.677 60.6C170.029 59.304 172.285 58.656 174.445 58.656C175.645 58.656 176.581 58.92 177.253 59.448C177.925 59.928 178.261 60.648 178.261 61.608C178.261 62.76 177.637 63.888 176.389 64.992C175.141 66.048 173.605 67.032 171.781 67.944C170.005 68.808 168.085 69.6 166.021 70.32C163.957 70.992 162.133 71.496 160.549 71.832C160.021 72.792 159.589 73.872 159.253 75.072C158.917 76.272 158.749 77.472 158.749 78.672C158.749 79.248 158.797 79.824 158.893 80.4C159.037 80.928 159.229 81.432 159.469 81.912C159.757 82.344 160.117 82.704 160.549 82.992C161.029 83.28 161.605 83.424 162.277 83.424C163.861 83.424 165.709 82.92 167.821 81.912C169.981 80.856 172.165 79.464 174.373 77.736C176.581 76.008 178.693 74.04 180.709 71.832C182.725 69.624 184.453 67.344 185.893 64.992L186.469 65.352ZM193.418 59.232L184.274 72.552L184.418 72.696C185.09 71.88 185.93 70.944 186.938 69.888C187.994 68.784 189.122 67.68 190.322 66.576C191.57 65.424 192.866 64.296 194.21 63.192C195.554 62.088 196.874 61.104 198.17 60.24C198.41 59.76 198.674 59.376 198.962 59.088C199.25 58.8 199.826 58.656 200.69 58.656C201.218 58.656 201.674 58.68 202.058 58.728C202.49 58.728 202.922 58.752 203.354 58.8C202.538 59.616 201.746 60.624 200.978 61.824C200.21 62.976 199.826 64.248 199.826 65.64C199.826 66.744 200.09 67.608 200.618 68.232C201.194 68.856 201.89 69.168 202.706 69.168C203.426 69.168 204.122 69.024 204.794 68.736C205.514 68.448 206.186 68.088 206.81 67.656C207.434 67.224 208.034 66.768 208.61 66.288C209.186 65.808 209.69 65.376 210.122 64.992L210.554 65.28C210.074 65.76 209.522 66.288 208.898 66.864C208.274 67.392 207.602 67.896 206.882 68.376C206.162 68.856 205.394 69.264 204.578 69.6C203.762 69.888 202.922 70.032 202.058 70.032C200.522 70.032 199.274 69.576 198.314 68.664C197.402 67.704 196.946 66.384 196.946 64.704C196.946 63.552 197.21 62.52 197.738 61.608L197.594 61.464C195.626 62.808 193.466 64.584 191.114 66.792C188.762 68.952 186.266 71.52 183.626 74.496C182.666 75.552 181.658 76.944 180.602 78.672C179.594 80.4 178.706 82.176 177.938 84H173.258C175.85 79.872 178.442 75.768 181.034 71.688C183.626 67.608 186.29 63.456 189.026 59.232H193.418ZM234.71 59.232C231.83 63.12 229.094 67.08 226.502 71.112C223.958 75.144 221.318 79.152 218.582 83.136C220.982 82.608 223.334 81.744 225.638 80.544C227.99 79.344 230.198 77.904 232.262 76.224C234.326 74.544 236.222 72.696 237.95 70.68C239.726 68.664 241.214 66.624 242.414 64.56L242.702 64.992C240.59 68.592 238.262 71.592 235.718 73.992C233.222 76.392 230.798 78.312 228.446 79.752C226.094 81.192 223.982 82.248 222.11 82.92C220.238 83.544 218.894 83.904 218.078 84C217.838 84.144 217.358 84.768 216.638 85.872C215.918 86.976 214.958 88.32 213.758 89.904C212.558 91.488 211.118 93.168 209.438 94.944C207.806 96.72 205.934 98.352 203.822 99.84C201.758 101.376 199.454 102.648 196.91 103.656C194.366 104.664 191.63 105.168 188.702 105.168C186.974 105.168 185.366 104.976 183.878 104.592C182.39 104.208 181.118 103.656 180.062 102.936C178.958 102.216 178.118 101.352 177.542 100.344C176.918 99.336 176.606 98.208 176.606 96.96C176.606 94.896 177.35 93.168 178.838 91.776C180.326 90.432 182.198 89.76 184.454 89.76C184.934 89.76 185.342 89.784 185.678 89.832C185.966 89.88 186.278 89.952 186.614 90.048V90.624H186.038C184.166 90.624 182.774 91.2 181.862 92.352C180.95 93.552 180.494 95.136 180.494 97.104C180.494 98.4 180.734 99.504 181.214 100.416C181.646 101.328 182.27 102.072 183.086 102.648C183.854 103.224 184.766 103.632 185.822 103.872C186.878 104.16 188.03 104.304 189.278 104.304C191.39 104.304 193.478 103.8 195.542 102.792C197.558 101.832 199.502 100.536 201.374 98.904C203.246 97.32 205.022 95.52 206.702 93.504C208.43 91.488 210.038 89.448 211.526 87.384C213.062 85.368 214.454 83.424 215.702 81.552C216.95 79.632 218.054 78 219.014 76.656L218.87 76.512C218.102 77.424 217.238 78.36 216.278 79.32C215.366 80.232 214.382 81.096 213.326 81.912C212.27 82.68 211.166 83.328 210.014 83.856C208.862 84.336 207.662 84.576 206.414 84.576C205.502 84.576 204.71 84.408 204.038 84.072C203.366 83.736 202.814 83.304 202.382 82.776C201.95 82.2 201.638 81.576 201.446 80.904C201.254 80.232 201.158 79.584 201.158 78.96C201.158 77.472 201.47 75.936 202.094 74.352C202.766 72.768 203.63 71.232 204.686 69.744C205.742 68.208 206.966 66.792 208.358 65.496C209.75 64.152 211.19 62.976 212.678 61.968C214.214 60.96 215.75 60.168 217.286 59.592C218.822 58.968 220.238 58.656 221.534 58.656C223.406 58.656 224.75 59.136 225.566 60.096C226.43 61.008 226.862 62.088 226.862 63.336H227.078L229.742 59.232H234.71ZM221.39 59.52C219.806 59.52 218.078 60.192 216.206 61.536C214.382 62.832 212.654 64.464 211.022 66.432C209.438 68.4 208.118 70.536 207.062 72.84C206.006 75.144 205.478 77.304 205.478 79.32C205.478 80.376 205.742 81.24 206.27 81.912C206.846 82.536 207.566 82.848 208.43 82.848C209.102 82.848 209.966 82.584 211.022 82.056C212.126 81.48 213.254 80.712 214.406 79.752C215.606 78.744 216.806 77.592 218.006 76.296C219.206 74.952 220.262 73.536 221.174 72.048C222.134 70.56 222.902 69.024 223.478 67.44C224.102 65.808 224.414 64.2 224.414 62.616C224.414 61.8 224.174 61.08 223.694 60.456C223.262 59.832 222.494 59.52 221.39 59.52ZM255.507 61.536C255.507 60.864 255.315 60.36 254.931 60.024C254.595 59.688 254.163 59.52 253.635 59.52C252.627 59.52 251.523 59.928 250.323 60.744C249.171 61.512 248.019 62.496 246.867 63.696C245.715 64.848 244.659 66.096 243.699 67.44C242.787 68.784 242.091 69.984 241.611 71.04C242.667 70.848 243.987 70.488 245.571 69.96C247.155 69.384 248.667 68.688 250.107 67.872C251.595 67.056 252.867 66.12 253.923 65.064C254.979 63.96 255.507 62.784 255.507 61.536ZM267.171 65.352C266.451 66.552 265.539 67.872 264.435 69.312C263.379 70.752 262.155 72.192 260.763 73.632C259.419 75.024 257.955 76.392 256.371 77.736C254.835 79.032 253.227 80.208 251.547 81.264C249.867 82.272 248.163 83.088 246.435 83.712C244.755 84.288 243.099 84.576 241.467 84.576C239.451 84.576 237.891 84.072 236.787 83.064C235.683 82.008 235.131 80.52 235.131 78.6C235.131 76.488 235.755 74.28 237.003 71.976C238.299 69.624 239.931 67.464 241.899 65.496C243.867 63.528 246.027 61.896 248.379 60.6C250.731 59.304 252.987 58.656 255.147 58.656C256.347 58.656 257.283 58.92 257.955 59.448C258.627 59.928 258.963 60.648 258.963 61.608C258.963 62.76 258.339 63.888 257.091 64.992C255.843 66.048 254.307 67.032 252.483 67.944C250.707 68.808 248.787 69.6 246.723 70.32C244.659 70.992 242.835 71.496 241.251 71.832C240.723 72.792 240.291 73.872 239.955 75.072C239.619 76.272 239.451 77.472 239.451 78.672C239.451 79.248 239.499 79.824 239.595 80.4C239.739 80.928 239.931 81.432 240.171 81.912C240.459 82.344 240.819 82.704 241.251 82.992C241.731 83.28 242.307 83.424 242.979 83.424C244.563 83.424 246.411 82.92 248.523 81.912C250.683 80.856 252.867 79.464 255.075 77.736C257.283 76.008 259.395 74.04 261.411 71.832C263.427 69.624 265.155 67.344 266.595 64.992L267.171 65.352Z" fill="url(#paint9_linear)"/>
  <defs>
    <linearGradient id="paint0_linear" x1="187.055" y1="23.1539" x2="280.294" y2="23.1539" gradientUnits="userSpaceOnUse">
      <stop stop-color="#A58549"/>
      <stop offset="0.22" stop-color="#AA8A4D"/>
      <stop offset="0.47" stop-color="#B89858"/>
      <stop offset="0.75" stop-color="#CEB06A"/>
      <stop offset="1" stop-color="#EACC80"/>
    </linearGradient>
    <linearGradient id="paint1_linear" x1="-2339.15" y1="1650.64" x2="355.789" y2="1650.64" gradientUnits="userSpaceOnUse">
      <stop stop-color="#A58549"/>
      <stop offset="0.22" stop-color="#AA8A4D"/>
      <stop offset="0.47" stop-color="#B89858"/>
      <stop offset="0.75" stop-color="#CEB06A"/>
      <stop offset="1" stop-color="#EACC80"/>
    </linearGradient>
    <linearGradient id="paint2_linear" x1="-532.506" y1="1074.92" x2="1278.98" y2="1074.92" gradientUnits="userSpaceOnUse">
      <stop stop-color="#A58549"/>
      <stop offset="0.22" stop-color="#AA8A4D"/>
      <stop offset="0.47" stop-color="#B89858"/>
      <stop offset="0.75" stop-color="#CEB06A"/>
      <stop offset="1" stop-color="#EACC80"/>
    </linearGradient>
    <linearGradient id="paint3_linear" x1="-118.603" y1="982.683" x2="1779.48" y2="982.683" gradientUnits="userSpaceOnUse">
      <stop stop-color="#A58549"/>
      <stop offset="0.22" stop-color="#AA8A4D"/>
      <stop offset="0.47" stop-color="#B89858"/>
      <stop offset="0.75" stop-color="#CEB06A"/>
      <stop offset="1" stop-color="#EACC80"/>
    </linearGradient>
    <linearGradient id="paint4_linear" x1="-1797.14" y1="1184.68" x2="1123.98" y2="1184.68" gradientUnits="userSpaceOnUse">
      <stop stop-color="#A58549"/>
      <stop offset="0.22" stop-color="#AA8A4D"/>
      <stop offset="0.47" stop-color="#B89858"/>
      <stop offset="0.75" stop-color="#CEB06A"/>
      <stop offset="1" stop-color="#EACC80"/>
    </linearGradient>
    <linearGradient id="paint5_linear" x1="2280.18" y1="1008.17" x2="5333.99" y2="1008.17" gradientUnits="userSpaceOnUse">
      <stop stop-color="#A58549"/>
      <stop offset="0.22" stop-color="#AA8A4D"/>
      <stop offset="0.47" stop-color="#B89858"/>
      <stop offset="0.75" stop-color="#CEB06A"/>
      <stop offset="1" stop-color="#EACC80"/>
    </linearGradient>
    <linearGradient id="paint6_linear" x1="3108.67" y1="1165.57" x2="6049.9" y2="1165.57" gradientUnits="userSpaceOnUse">
      <stop stop-color="#A58549"/>
      <stop offset="0.22" stop-color="#AA8A4D"/>
      <stop offset="0.47" stop-color="#B89858"/>
      <stop offset="0.75" stop-color="#CEB06A"/>
      <stop offset="1" stop-color="#EACC80"/>
    </linearGradient>
    <linearGradient id="paint7_linear" x1="1150.62" y1="923.806" x2="10642.4" y2="923.806" gradientUnits="userSpaceOnUse">
      <stop stop-color="#A58549"/>
      <stop offset="0.22" stop-color="#AA8A4D"/>
      <stop offset="0.47" stop-color="#B89858"/>
      <stop offset="0.75" stop-color="#CEB06A"/>
      <stop offset="1" stop-color="#EACC80"/>
    </linearGradient>
    <linearGradient id="paint8_linear" x1="-236.333" y1="915.871" x2="4191.97" y2="915.871" gradientUnits="userSpaceOnUse">
      <stop stop-color="#A58549"/>
      <stop offset="0.22" stop-color="#AA8A4D"/>
      <stop offset="0.47" stop-color="#B89858"/>
      <stop offset="0.75" stop-color="#CEB06A"/>
      <stop offset="1" stop-color="#EACC80"/>
    </linearGradient>
    <linearGradient id="paint9_linear" x1="1.58072e-06" y1="69.5" x2="272" y2="69.5" gradientUnits="userSpaceOnUse">
      <stop stop-color="#A58549"/>
      <stop offset="1" stop-color="#EACC80"/>
    </linearGradient>
    <clipPath id="clip0">
      <rect width="160" height="42" fill="white" transform="translate(56)"/>
    </clipPath>
  </defs>
</svg>
