<svg width="37" height="34" viewBox="0 0 22 20" fill="none" xmlns="http://www.w3.org/2000/svg">
<path d="M19.1653 10.0808L19.0274 10.2416L10.7453 18.5237L2.46328 10.2416L2.32536 10.0808C1.42214 9.02783 0.950223 7.67241 1.00416 6.28616C1.0581 4.89991 1.63392 3.58525 2.61622 2.60562C3.59853 1.62599 4.91475 1.05376 6.30115 1.0036C7.68754 0.953441 9.04167 1.42905 10.0922 2.33514L10.7453 2.89846L11.3985 2.33514C12.449 1.42905 13.8031 0.953441 15.1895 1.0036C16.5759 1.05376 17.8921 1.62599 18.8744 2.60562C19.8567 3.58525 20.4326 4.89991 20.4865 6.28616C20.5404 7.67241 20.0685 9.02783 19.1653 10.0808Z" stroke="#eacc80" stroke-width="2"/>
</svg>
