<svg width="36" height="35" viewBox="0 0 36 35" fill="none"
  xmlns="http://www.w3.org/2000/svg">
  <path d="M13.7125 16.625C12.6682 16.625 11.6667 16.2102 10.9283 15.4717C10.1898 14.7333 9.775 13.7318 9.775 12.6875C9.775 11.6432 10.1898 10.6417 10.9283 9.90327C11.6667 9.16484 12.6682 8.75 13.7125 8.75C14.7568 8.75 15.7583 9.16484 16.4967 9.90327C17.2352 10.6417 17.65 11.6432 17.65 12.6875C17.65 13.7318 17.2352 14.7333 16.4967 15.4717C15.7583 16.2102 14.7568 16.625 13.7125 16.625ZM14.5 31.059V25.2C14.5 24.346 14.752 23.5603 15.207 22.8585C13.6472 22.6366 12.0582 22.7425 10.5416 23.1695C9.02502 23.5965 7.61419 24.3351 6.39925 25.3382C8.31213 28.169 11.1927 30.2039 14.5 31.0608V31.059ZM4.79275 22.155C7.34861 20.2636 10.4454 19.245 13.625 19.25C15.4502 19.25 17.2003 19.579 18.8172 20.181C20.3538 19.5807 22.186 19.25 24.125 19.25C27.03 19.25 29.6987 19.992 31.4855 21.273C32.0762 19.1553 32.1598 16.9282 31.7296 14.7721C31.2994 12.6161 30.3675 10.5916 29.0093 8.86276C27.6511 7.1339 25.9048 5.74923 23.9118 4.82087C21.9189 3.89252 19.7353 3.44659 17.5379 3.5192C15.3406 3.5918 13.1912 4.18091 11.2639 5.23879C9.33653 6.29668 7.68545 7.79362 6.44433 9.60837C5.20321 11.4231 4.40694 13.5047 4.12001 15.6844C3.83307 17.8642 4.06354 20.0809 4.79275 22.155ZM30.0382 24.6505C29.3505 23.7178 27.0492 22.75 24.125 22.75C20.6145 22.75 18 24.1447 18 25.2V31.5C20.4287 31.5013 22.816 30.8705 24.927 29.6696C27.038 28.4686 28.8001 26.7389 30.04 24.6505H30.0382ZM18 35C8.33475 35 0.5 27.1652 0.5 17.5C0.5 7.83475 8.33475 0 18 0C27.6652 0 35.5 7.83475 35.5 17.5C35.5 27.1652 27.6652 35 18 35ZM24.125 18.375C23.1967 18.375 22.3065 18.0063 21.6501 17.3499C20.9937 16.6935 20.625 15.8033 20.625 14.875C20.625 13.9467 20.9937 13.0565 21.6501 12.4001C22.3065 11.7437 23.1967 11.375 24.125 11.375C25.0533 11.375 25.9435 11.7437 26.5999 12.4001C27.2563 13.0565 27.625 13.9467 27.625 14.875C27.625 15.8033 27.2563 16.6935 26.5999 17.3499C25.9435 18.0063 25.0533 18.375 24.125 18.375Z" fill="#EACC80"/>
</svg>
