<svg viewBox="0 0 64 64" fill="none" xmlns="http://www.w3.org/2000/svg">
<path d="M8 14C8 11.7909 9.79086 10 12 10H52C54.2091 10 56 11.7909 56 14V50C56 52.2091 54.2091 54 52 54H12C9.79086 54 8 52.2091 8 50V14Z" fill="#EACC80"/>
<path fill-rule="evenodd" clip-rule="evenodd" d="M30 22C30 23.8638 28.7252 25.4299 27 25.874V30H34V32H27V36H37.5L41.5 42L45.5 40.5L46 42L40.5 44L36.5 38H25V25.874C23.2748 25.4299 22 23.8638 22 22C22 19.7909 23.7909 18 26 18C28.2091 18 30 19.7909 30 22ZM18 39.0002C18 35.8291 20.1085 33.1506 23 32.29V34.4162C21.2341 35.1878 20 36.9498 20 39.0002C20 41.7616 22.2386 44.0002 25 44.0002C27.419 44.0002 29.4367 42.2824 29.9 40.0001H31.9291C31.4439 43.3924 28.5265 46.0002 25 46.0002C21.134 46.0002 18 42.8662 18 39.0002Z" fill="#283845"/>
</svg>
