<svg width="65" height="29" viewBox="0 0 65 29" fill="none" xmlns="http://www.w3.org/2000/svg">
<path d="M12.448 4.47427C13.2076 3.50957 13.723 2.21427 13.5871 0.890625C12.4752 0.946766 11.1182 1.63549 10.3327 2.60094C9.62728 3.4277 9.00297 4.77724 9.16573 6.0454C10.4139 6.15533 11.661 5.41189 12.448 4.47427Z" fill="black"/>
<path d="M13.5726 6.2925C11.7599 6.18286 10.2186 7.33711 9.35295 7.33711C8.48681 7.33711 7.1612 6.34775 5.72744 6.37441C3.86132 6.40225 2.12977 7.47358 1.1828 9.17752C-0.764977 12.5862 0.668779 17.6425 2.56289 20.4187C3.48271 21.7922 4.59125 23.3045 6.05192 23.2502C7.43201 23.1952 7.97295 22.3428 9.65051 22.3428C11.3268 22.3428 11.8141 23.2502 13.275 23.2227C14.79 23.1952 15.7372 21.8485 16.657 20.4737C17.7122 18.908 18.1441 17.3962 18.1713 17.3132C18.1441 17.2857 15.25 16.1584 15.2231 12.778C15.1958 9.94759 17.4954 8.60128 17.6036 8.51778C16.305 6.56764 14.276 6.34775 13.5726 6.2925Z" fill="black"/>
<path d="M29.3559 2.46241C33.2958 2.46241 36.0393 5.21996 36.0393 9.23474C36.0393 13.2639 33.2393 16.0357 29.2571 16.0357H24.8949V23.0795H21.7432V2.4624H29.3559V2.46241ZM24.8949 13.3496H28.5112C31.2553 13.3496 32.817 11.8495 32.817 9.24907C32.817 6.64888 31.2553 5.16291 28.5253 5.16291H24.8949V13.3496V13.3496Z" fill="black"/>
<path d="M36.8623 18.8075C36.8623 16.1784 38.8464 14.564 42.3645 14.3639L46.4167 14.1211V12.9639C46.4167 11.2922 45.305 10.2921 43.448 10.2921C41.6886 10.2921 40.591 11.1492 40.324 12.4924H37.4534C37.6223 9.77757 39.9016 7.77734 43.5603 7.77734C47.1485 7.77734 49.4419 9.70619 49.4419 12.7209V23.0794H46.5291V20.6077H46.4591C45.6008 22.2794 43.7292 23.3366 41.7874 23.3366C38.8887 23.3366 36.8623 21.5078 36.8623 18.8075ZM46.4167 17.4503V16.2644L42.7721 16.4929C40.9569 16.6216 39.9299 17.4359 39.9299 18.7218C39.9299 20.0361 40.9992 20.8935 42.6315 20.8935C44.7562 20.8935 46.4167 19.4075 46.4167 17.4503Z" fill="black"/>
<path d="M52.193 28.6089V26.1085C52.4177 26.1655 52.9242 26.1655 53.1777 26.1655C54.5847 26.1655 55.3447 25.5656 55.8088 24.0225C55.8088 23.9939 56.0764 23.1081 56.0764 23.0938L50.7295 8.04883H54.0218L57.7652 20.2792H57.8211L61.5645 8.04883H64.7726L59.2281 23.8652C57.9622 27.5087 56.4987 28.6803 53.4312 28.6803C53.1777 28.6803 52.4177 28.6516 52.193 28.6089Z" fill="black"/>
</svg>
