<svg width="50" height="20" viewBox="0 0 50 20" fill="none" xmlns="http://www.w3.org/2000/svg">
<path d="M23.3888 9.74021V15.342H21.6111V1.50879H26.324C27.5184 1.50879 28.537 1.90694 29.3703 2.70323C30.2221 3.49952 30.648 4.47173 30.648 5.61987C30.648 6.79579 30.2221 7.768 29.3703 8.55503C28.5462 9.34206 27.5277 9.73095 26.324 9.73095H23.3888V9.74021ZM23.3888 3.21248V8.03651H26.361C27.0647 8.03651 27.6573 7.79578 28.1203 7.32356C28.5925 6.85134 28.8332 6.27727 28.8332 5.62913C28.8332 4.99024 28.5925 4.42543 28.1203 3.95322C27.6573 3.46248 27.074 3.22174 26.361 3.22174H23.3888V3.21248Z" fill="#3C4043"/>
<path d="M35.2962 5.56445C36.611 5.56445 37.6481 5.9163 38.4073 6.62C39.1666 7.3237 39.5462 8.28665 39.5462 9.50887V15.3422H37.8518V14.0273H37.7777C37.0462 15.1107 36.0647 15.6477 34.8425 15.6477C33.7962 15.6477 32.9259 15.3422 32.2222 14.7218C31.5185 14.1014 31.1666 13.3329 31.1666 12.407C31.1666 11.4255 31.537 10.6477 32.2777 10.0737C33.0185 9.49035 34.0092 9.20331 35.2407 9.20331C36.2962 9.20331 37.1666 9.39776 37.8425 9.78664V9.37924C37.8425 8.75887 37.6018 8.24036 37.111 7.80517C36.6203 7.36999 36.0462 7.15703 35.3888 7.15703C34.3981 7.15703 33.6111 7.5737 33.037 8.41628L31.4722 7.43481C32.3333 6.18482 33.6111 5.56445 35.2962 5.56445ZM32.9999 12.4348C32.9999 12.8977 33.1944 13.2866 33.5925 13.5922C33.9814 13.8977 34.4444 14.0551 34.9722 14.0551C35.7221 14.0551 36.3888 13.7773 36.9721 13.2218C37.5555 12.6662 37.8518 12.0181 37.8518 11.2681C37.2962 10.8329 36.5277 10.6107 35.537 10.6107C34.8147 10.6107 34.2129 10.7866 33.7314 11.1292C33.2407 11.4903 32.9999 11.9255 32.9999 12.4348Z" fill="#3C4043"/>
<path d="M49.2128 5.87036L43.2869 19.4999H41.4536L43.6573 14.7314L39.7499 5.87036H41.685L44.4998 12.6666H44.5369L47.2776 5.87036H49.2128Z" fill="#3C4043"/>
<path d="M16.3176 8.61094C16.3176 8.03131 16.2657 7.47669 16.1694 6.94336H8.71765V9.99889L13.0093 9.99982C12.8352 11.0165 12.275 11.8831 11.4167 12.4609V14.4433H13.9713C15.463 13.0628 16.3176 11.022 16.3176 8.61094Z" fill="#4285F4"/>
<path d="M11.4176 12.4611C10.7065 12.9408 9.7908 13.2213 8.71951 13.2213C6.65008 13.2213 4.89454 11.8269 4.26584 9.94727H1.63068V11.9917C2.93622 14.5824 5.61953 16.3602 8.71951 16.3602C10.8621 16.3602 12.6621 15.6556 13.9722 14.4426L11.4176 12.4611Z" fill="#34A853"/>
<path d="M4.01776 8.43042C4.01776 7.90264 4.10572 7.39246 4.2659 6.91284V4.86841H1.63074C1.09093 5.9397 0.787231 7.14895 0.787231 8.43042C0.787231 9.71189 1.09186 10.9211 1.63074 11.9924L4.2659 9.948C4.10572 9.46837 4.01776 8.95819 4.01776 8.43042Z" fill="#FABB05"/>
<path d="M8.71951 3.63886C9.88894 3.63886 10.9362 4.04164 11.763 4.82867L14.0269 2.56665C12.6519 1.28611 10.8593 0.5 8.71951 0.5C5.62046 0.5 2.93622 2.27776 1.63068 4.86848L4.26584 6.91291C4.89454 5.0333 6.65008 3.63886 8.71951 3.63886Z" fill="#E94235"/>
</svg>
