<svg viewBox="0 0 65 64" fill="none" xmlns="http://www.w3.org/2000/svg">
<path fill-rule="evenodd" clip-rule="evenodd" d="M1.00111 18V55H49.0056C53.9725 55 58.0012 50.9792 58.0011 46.0073L58.0004 14C58.0004 11.2386 55.7629 9 53.0029 9C50.2429 9 48.0054 11.2386 48.0054 14V17H0.996094L1.00111 18ZM56.0014 14C56.0014 12.3431 54.659 11 53.0029 11C51.3469 11 50.0044 12.3431 50.0044 14V18C50.0044 18.5523 49.557 19 49.0049 19H2.00111V53H49.0056C52.871 53 56.0022 49.8722 56.0021 46.0074L56.0014 14Z" fill="#D0D4D6"/>
</svg>
